<svg xmlns="http://www.w3.org/2000/svg" xmlns:xlink="http://www.w3.org/1999/xlink" version="1.1" x="0px" y="0px" viewBox="0 0 60 75" style="enable-background:new 0 0 60 60;" xml:space="preserve"><path d="M17,47c1.1,0,2-0.9,2-2v-1H9v1c0,1.1,0.9,2,2,2H17z"/><path d="M49,47c1.1,0,2-0.9,2-2v-1H41v1c0,1.1,0.9,2,2,2H49z"/><path d="M7.19,21.35C7.06,21.71,7,22.08,7,22.46c0,0.67,0.2,1.31,0.55,1.84l3.66-3.52c0.38-0.4,0.69-0.85,0.94-1.34  c-0.9-0.49-1.97-0.58-2.93-0.21C8.25,19.6,7.51,20.38,7.19,21.35z"/><path d="M49.84,21.8l2.61,2.51C52.8,23.77,53,23.14,53,22.46c0-0.38-0.06-0.75-0.18-1.1c-0.33-0.98-1.07-1.76-2.04-2.13  c-0.96-0.37-2.03-0.29-2.94,0.22c0.11,0.22,0.23,0.42,0.38,0.63c0.14,0.2,0.28,0.38,0.45,0.56L49.84,21.8z"/><path d="M47.84,22.65L47.84,22.65c-0.01-0.01-0.01-0.01-0.01-0.01l-0.21-0.21c-0.41-0.39-0.75-0.79-1.04-1.21  c-0.25-0.36-0.46-0.72-0.63-1.09l-0.74-1.54c0-0.01-0.01-0.01-0.01-0.02l-1.33-2.75C42.86,14.08,40.95,13,38.89,13H21.11  c-2.07,0-3.98,1.08-5.02,2.89l-2.04,4.24c-0.41,0.86-0.97,1.63-1.66,2.3l-0.24,0.23c0,0,0,0-0.01,0l-4.6,4.43  C6.56,28.02,6,29.34,6,30.7V39c0,1.65,1.35,3,3,3h42c1.65,0,3-1.35,3-3v-8.3c0-1.36-0.56-2.68-1.54-3.6L47.84,22.65z M15.85,21  c0,0,0,0,0-0.01l2-4.17c0.66-1.12,1.9-1.82,3.26-1.82h17.78c1.35,0,2.6,0.7,3.22,1.75l2.04,4.24c0,0.01,0,0.01,0.01,0.02  c0.21,0.45,0.47,0.91,0.78,1.35c0.21,0.3,0.44,0.59,0.7,0.88C44.86,23.73,43.96,24,43.02,24H16.98c-0.93,0-1.83-0.27-2.61-0.75  C14.96,22.56,15.46,21.81,15.85,21z M17.25,37h-4.84C11.08,37,10,35.92,10,34.59v-2.3c0-0.85,0.42-1.64,1.11-2.13  c0.7-0.48,1.59-0.59,2.39-0.29l4.72,1.77c1.06,0.4,1.78,1.43,1.78,2.57C20,35.77,18.77,37,17.25,37z M36.97,32.24l-1,4  C35.86,36.69,35.46,37,35,37H25c-0.46,0-0.86-0.31-0.97-0.76l-1-4c-0.07-0.3-0.01-0.61,0.18-0.86C23.4,31.14,23.69,31,24,31h12  c0.31,0,0.6,0.14,0.79,0.38C36.98,31.63,37.04,31.94,36.97,32.24z M50,34.59c0,1.33-1.08,2.41-2.41,2.41h-4.84  C41.23,37,40,35.77,40,34.25c0-1.18,0.72-2.21,1.79-2.61l4.71-1.77c0.8-0.3,1.69-0.19,2.39,0.29c0.69,0.49,1.11,1.28,1.11,2.13  V34.59z"/></svg>