<svg xmlns="http://www.w3.org/2000/svg" version="1.1" viewBox="-5.0 -10.0 110.0 135.0">
 <path d="m86 8h-31.699l-2.4922-2.4844c-2.2461-2.2578-5.3008-3.5234-8.4844-3.5156h-11.223c-6.625 0.007812-11.992 5.375-12 12v30.055c-3.3672 1.3242-6.457 3.2734-9.1016 5.75-0.80469 0.75781-1.1328 1.8945-0.84375 2.9648l1.1523 4.3008c0.42969 1.6016-0.51953 3.2461-2.1211 3.6758h-0.003906l-4.3008 1.1523c-1.0664 0.28516-1.8906 1.1367-2.1445 2.2148-0.98828 4.2656-0.98828 8.6992 0 12.961 0.25 1.0781 1.0781 1.9336 2.1484 2.2188l4.3008 1.1523c1.6016 0.42969 2.5508 2.0703 2.125 3.6719v0.003906l-1.1523 4.3008c-0.28516 1.0703 0.039063 2.207 0.84375 2.9648 3.1953 2.9961 7.0391 5.2148 11.23 6.4922 1.0586 0.32031 2.207 0.03125 2.9883-0.75l3.1523-3.1523c1.1719-1.1719 3.0703-1.1719 4.2422 0l3.1523 3.1523c0.78125 0.78125 1.9297 1.0703 2.9883 0.75 4.1914-1.2773 8.0312-3.4961 11.23-6.4922 0.80859-0.75781 1.1328-1.8945 0.84375-2.9648l-1.1523-4.3008c-0.42969-1.6016 0.51953-3.2461 2.1211-3.6758h0.003907l4.3008-1.1523c1.0703-0.28516 1.8945-1.1406 2.1484-2.2188 0.26562-1.1484 0.46094-2.3086 0.58203-3.4805l27.164-0.003906c6.625-0.007813 11.992-5.375 12-12v-41.59c-0.007812-6.625-5.375-11.992-12-12zm-55.5 70.09c-4.1406 0-7.5-3.3594-7.5-7.5s3.3594-7.5 7.5-7.5 7.5 3.3594 7.5 7.5c-0.003906 4.1406-3.3594 7.4961-7.5 7.5zm61.5-16.5c-0.003906 3.3125-2.6875 5.9961-6 6h-27.16c-0.12109-1.1719-0.31641-2.332-0.58203-3.4805-0.25-1.0781-1.0781-1.9336-2.1484-2.2188l-4.3008-1.1523c-1.6016-0.42969-2.5508-2.0703-2.125-3.6719v-0.003906l1.1523-4.3008c0.28516-1.0664-0.039063-2.207-0.84375-2.9648-3.1953-2.9961-7.0391-5.2148-11.23-6.4922-1.0586-0.32031-2.207-0.03125-2.9883 0.75l-3.1523 3.1523c-1.1719 1.1719-3.0703 1.1719-4.2422 0l-2.2734-2.2734 0.003906-30.934c0.003906-3.3125 2.6875-5.9961 6-6h11.219c1.5938-0.003906 3.1211 0.62891 4.2422 1.7578l15.359 15.363c0.5625 0.5625 1.3242 0.87891 2.1211 0.87891h20.949c3.3125 0.003906 5.9961 2.6875 6 6z"/>
<text x="0.0" y="117.5" font-size="5.0" font-weight="bold" font-family="Arbeit Regular, Helvetica, Arial-Unicode, Arial, Sans-serif" fill="#000000">Created by Side Project</text><text x="0.0" y="122.5" font-size="5.0" font-weight="bold" font-family="Arbeit Regular, Helvetica, Arial-Unicode, Arial, Sans-serif" fill="#000000">from Noun Project</text></svg>