<svg xmlns="http://www.w3.org/2000/svg" xmlns:xlink="http://www.w3.org/1999/xlink" version="1.1" x="0px" y="0px" viewBox="0 0 100 125" enable-background="new 0 0 100 100" xml:space="preserve"><path d="M48.923,51.38c-0.306-0.811-0.381-2.145-0.025-2.716c0.51-0.814,1.627-0.85,2.651-0.776  c0.221,0.016,0.387,0.207,0.371,0.428c-0.016,0.221-0.209,0.391-0.428,0.371c-1.088-0.078-1.694,0.051-1.915,0.402  c-0.155,0.249-0.175,1.29,0.095,2.009c0.117,0.309,0.234,0.404,0.269,0.415c0.212,0.064,0.332,0.287,0.268,0.499  c-0.052,0.174-0.211,0.285-0.383,0.285c-0.039,0-0.077-0.006-0.116-0.017C49.375,52.179,49.11,51.877,48.923,51.38z M39.809,37.475  c1.879,0,3.619,0.52,4.655,1.391c0.159,0.134,0.397,0.113,0.531-0.046c0.134-0.159,0.113-0.397-0.046-0.531  c-1.167-0.981-3.089-1.568-5.139-1.568c-3.523,0-6.282,1.64-6.282,3.733c0,0.208,0.169,0.377,0.377,0.377s0.377-0.169,0.377-0.377  C34.281,38.839,36.812,37.475,39.809,37.475z M58.232,57.127c0.127,0.184,0.157,0.418,0.079,0.628  c-0.019,0.053-2.003,5.256-7.992,5.256c-5.976,0-7.959-4.813-8.04-5.018c-0.083-0.207-0.059-0.441,0.062-0.629  c0.122-0.187,0.326-0.304,0.549-0.313l7.348-0.294c0.011-0.001,0.023-0.001,0.034-0.001l7.4,0.073  C57.896,56.832,58.104,56.943,58.232,57.127z M56.555,58.194l-6.28-0.062l-6.227,0.249c0.806,1.223,2.684,3.254,6.27,3.254  C53.922,61.635,55.774,59.474,56.555,58.194z M42.986,42.306c0-0.475-0.186-0.906-0.487-1.227c1.052,0.292,1.883,0.896,2.162,1.648  c0.073,0.195,0.289,0.295,0.484,0.222c0.195-0.073,0.294-0.289,0.222-0.484c-0.33-0.889-1.187-1.602-2.295-1.995  c-0.327-0.15-1.015-0.328-2.21-0.399c-2.376-0.141-6.045,1.67-6.045,1.67s1.113,0.81,1.283,0.931  c0.169,0.122,0.797,0.626,0.906,0.645c0.022,0.004,0.044,0.006,0.066,0.006c0.179,0,0.338-0.129,0.371-0.312  c0.164-0.934,1.188-1.706,2.508-1.997c-0.339,0.327-0.552,0.784-0.552,1.292c0,0.991,0.803,1.793,1.794,1.793  C42.183,44.1,42.986,43.297,42.986,42.306z M63.558,95c6.235-6.785,7.994-18.767,7.383-26.03c-0.383,0.688-2.035,2.981-4.23,4.056  c2.697-5.318,3.225-10.695,2.801-15.619c-0.034,0.086-0.084,0.212-0.084,0.212c-1.961,5.062-5.245,9.288-9.246,11.898  c-3.024,1.973-6.445,3.017-9.891,3.017c-3.462,0-6.896-1.052-9.931-3.043c-1.586-1.041-3.056-2.339-4.378-3.84  c0.219,4.197,0.951,8.214-0.847,12.846c-0.709,3.082-0.593,7.099,1.58,9.381c-1.073-0.546-1.964-1.22-2.648-1.97  c0.122,3.09,0.941,6.29,3.034,8.383c-16.082-9.113-23.183-68.67-5.438-76.778C30.009,4.282,49.684,2.451,59.967,7.8  c18.066,9.396,18.435,28.919,18.71,37.171C79.365,77.29,72.911,90.416,63.558,95z M68.858,52.869  c-0.253-1.278-0.548-2.509-0.862-3.681c-0.637,1.186-0.817,2.707-0.35,4.105c-1.6-0.495-2.476-1.909-2.665-2.665  c-0.315,1.197-0.42,3.719,1.547,6.002c-5.196-3.344-5.62-7.835-6.943-12.558c-0.099,0.017-0.2,0.028-0.304,0.028  c-0.991,0-1.794-0.803-1.794-1.793c0-0.495,0.201-0.943,0.525-1.267c-1.125,0.273-2.023,0.901-2.316,1.689  c-0.073,0.195-0.289,0.295-0.484,0.222c-0.195-0.073-0.294-0.289-0.222-0.484c0.33-0.889,1.187-1.602,2.295-1.995  c0.183-0.084,0.485-0.177,0.92-0.254c-0.33-0.71-0.714-1.42-1.17-2.126c-0.577,0.222-1.082,0.505-1.481,0.841  c-0.16,0.134-0.396,0.113-0.531-0.046c-0.134-0.159-0.113-0.396,0.046-0.531c0.422-0.355,0.944-0.658,1.533-0.9  c-1.458-2.048-3.573-4.06-6.806-5.963c-14.181-8.343-13.801-11.181-14.069-11.48c-4.088,4.746-5.05,10.385-5.371,19.828  c0,4.949,0.78,14.808,5.604,22.662l0,0c1.547,2.176,3.398,3.999,5.471,5.358c2.653,1.741,5.667,2.724,8.863,2.724  c3.181,0,6.181-0.975,8.826-2.7c3.681-2.401,6.669-6.26,8.494-10.971c0.033-0.084,0.068-0.167,0.1-0.252  c0.354-0.941,0.66-1.916,0.918-2.918C68.71,53.456,68.783,53.161,68.858,52.869z"/></svg>