<svg xmlns="http://www.w3.org/2000/svg" xmlns:xlink="http://www.w3.org/1999/xlink" xml:space="preserve" version="1.1" style="shape-rendering:geometricPrecision;text-rendering:geometricPrecision;image-rendering:optimizeQuality;" viewBox="0 0 333.33 416.66249999999997" x="0px" y="0px" fill-rule="evenodd" clip-rule="evenodd"><defs><style type="text/css">
   
    .fil0 {fill:black;fill-rule:nonzero}
   
  </style></defs><g><path class="fil0" d="M282.14 194.23l27.93 -95.14 -227.19 0 27.93 95.14 171.33 0zm-36.74 28.19c9.52,0 18.14,3.86 24.38,10.1 6.24,6.24 10.1,14.86 10.1,24.38 0,9.52 -3.86,18.14 -10.1,24.38 -6.24,6.24 -14.86,10.1 -24.38,10.1 -9.52,0 -18.14,-3.86 -24.38,-10.1 -6.24,-6.24 -10.1,-14.86 -10.1,-24.38 0,-9.52 3.86,-18.14 10.1,-24.38 6.24,-6.24 14.86,-10.1 24.38,-10.1zm12.63 21.85c-3.23,-3.23 -7.7,-5.23 -12.63,-5.23 -4.93,0 -9.4,2 -12.63,5.23 -3.23,3.23 -5.23,7.69 -5.23,12.63 0,4.93 2,9.4 5.23,12.63 3.23,3.23 7.7,5.23 12.63,5.23 4.93,0 9.4,-2 12.63,-5.23 3.23,-3.23 5.23,-7.7 5.23,-12.63 0,-4.93 -2,-9.4 -5.23,-12.63zm-110.49 -21.85c9.52,0 18.14,3.86 24.38,10.1 6.24,6.24 10.1,14.86 10.1,24.38 0,9.52 -3.86,18.14 -10.1,24.38 -6.24,6.24 -14.86,10.1 -24.38,10.1 -9.52,0 -18.14,-3.86 -24.38,-10.1 -6.24,-6.24 -10.1,-14.86 -10.1,-24.38 0,-9.52 3.86,-18.14 10.1,-24.38 6.24,-6.24 14.86,-10.1 24.38,-10.1zm12.63 21.85c-3.23,-3.23 -7.7,-5.23 -12.63,-5.23 -4.93,0 -9.4,2 -12.63,5.23 -3.23,3.23 -5.23,7.69 -5.23,12.63 0,4.93 2,9.4 5.23,12.63 3.23,3.23 7.7,5.23 12.63,5.23 4.93,0 9.4,-2 12.63,-5.23 3.23,-3.23 5.23,-7.7 5.23,-12.63 0,-4.93 -2,-9.4 -5.23,-12.63zm-96.5 -151.74l-9.97 -33.95 -41.5 0c-4.59,0 -8.31,-3.72 -8.31,-8.31 0,-4.59 3.72,-8.31 8.31,-8.31l47.7 0 0 0.02c3.59,0 6.89,2.34 7.95,5.95l10.14 34.54 243.15 0 0 0.02c0.78,0 1.56,0.11 2.34,0.34 4.39,1.29 6.91,5.9 5.61,10.29l-32.64 111.18c-0.81,3.74 -4.13,6.55 -8.12,6.55l-183.72 0 0 -0.02c-3.59,0 -6.89,-2.34 -7.95,-5.95l-32.64 -111.18c-0.14,-0.37 -0.26,-0.76 -0.34,-1.17z"/></g><text x="0" y="348.33" fill="#000000" font-size="5px" font-weight="bold" font-family="'Helvetica Neue', Helvetica, Arial-Unicode, Arial, Sans-serif">Created by PEBIAN</text><text x="0" y="353.33" fill="#000000" font-size="5px" font-weight="bold" font-family="'Helvetica Neue', Helvetica, Arial-Unicode, Arial, Sans-serif">from the Noun Project</text></svg>