<svg xmlns="http://www.w3.org/2000/svg" version="1.1" viewBox="-5.0 -10.0 110.0 135.0">
 <path d="m56.047 16.492 15.574 15.574v0.003906l-15.574 15.574v-4.8398c0-1.0664-0.42578-2.0938-1.1836-2.8477-0.75391-0.75781-1.7812-1.1797-2.8477-1.1797h-0.023437-0.015626c-0.20312 0-0.40625 0.019531-0.60547 0.050781h-0.003906c-10.594 1.707-19.395 8.7617-23.539 18.309v-1.3984c0-14.789 10.676-27.094 24.75-29.605 1.957-0.27734 3.4688-1.9609 3.4688-3.9961zm-0.49609-4.7305h-0.007812c-0.45312 0-0.91016 0.085937-1.3438 0.26562-1.3242 0.55078-2.1836 1.8398-2.1836 3.2695v6.8398h-0.007813c-16.027 2.793-28.211 16.773-28.211 33.602v4.0781c0 1.7305 1.2578 3.2109 2.9688 3.4883 0.19141 0.03125 0.37891 0.046874 0.57031 0.046874 1.4961 0 2.8633-0.95703 3.3477-2.418 3.1445-9.4102 11.32-16.516 21.324-18.129l0.007813 0.003906v6.0312c0 1.4297 0.85938 2.7188 2.1836 3.2656 0.43359 0.18359 0.89453 0.26953 1.3516 0.26953 0.91797 0 1.8242-0.35938 2.5-1.0352l16.773-16.773c1.3789-1.3789 1.3789-3.6172 0-5l-16.773-16.77c-0.67578-0.67969-1.582-1.0352-2.5-1.0352zm-28.195 16.383-10.793 0.003907h-0.003906c-5.0352 0-9.1055 4.082-9.1055 9.1211v41.844c0 5.0234 4.0586 9.1211 9.0742 9.125h66.895c5.0391 0 9.125-4.082 9.125-9.125v-41.844c0-5.0156-4.0508-9.0898-9.0625-9.125l-1.5742 0.003907h-0.003906c-1.1094 0-2.0117 0.90234-2.0117 2.0117 0 1.1133 0.90234 2.0156 2.0156 2.0156l1.5117 0.007813h0.003906c2.8086 0 5.0859 2.2773 5.0859 5.0859v41.844c0 2.8125-2.2773 5.0898-5.0898 5.0898h-66.895l0.007812 0.003906c-2.7695-0.003906-5.0469-2.2734-5.0469-5.0938v-41.844c0-2.793 2.2305-5.0469 4.9961-5.0859l10.871-0.003906c1.1133-0.003907 2.0156-0.90625 2.0156-2.0195 0-1.1133-0.90234-2.0156-2.0156-2.0156z"/>
<text x="0.0" y="117.5" font-size="5.0" font-weight="bold" font-family="Arbeit Regular, Helvetica, Arial-Unicode, Arial, Sans-serif" fill="#000000">Created by Feri Saputra</text><text x="0.0" y="122.5" font-size="5.0" font-weight="bold" font-family="Arbeit Regular, Helvetica, Arial-Unicode, Arial, Sans-serif" fill="#000000">from Noun Project</text></svg>