<svg xmlns="http://www.w3.org/2000/svg" version="1.1" viewBox="-5.0 -10.0 110.0 135.0">
 <path d="m91 50.352c0 22.285-18.133 40.352-40.5 40.352-7.543 0-14.602-2.0547-20.648-5.6289-1.8086-1.0742-10.078 2.1328-14.844 4.1406-1.2461 0.52344-2.5664-0.73047-2.1094-2.0039 1.7617-4.8945 4.5312-13.434 3.2383-15.496-3.8906-6.1953-6.1367-13.52-6.1367-21.363 0-22.285 18.133-40.352 40.5-40.352s40.5 18.066 40.5 40.352zm-47.633-6.7383c-0.45703 0.082031-0.78906 0.48047-0.78906 0.94141 0 0.55859 0.48047 0.98828 1.0391 1 3.3828 0.058593 3.043 2.1133 2.6992 3.25-0.66016 2.1914-1.6719 5.5977-2.7578 9.2461-0.95703 3.2305-1.9727 6.6484-2.8516 9.582-2.3359 7.8047 1.4727 10.086 6.0781 9.1797 4.3281-0.84766 7.8438-5.7539 9.8281-8.9102 0.25391-0.40625 0.13281-0.94141-0.26953-1.2031-0.38672-0.25391-0.89844-0.16797-1.1836 0.19141l-2.7617 3.4883c-0.003907 0.003906-0.007813 0.007813-0.011719 0.015625-0.097657 0.11328-1.2461 1.4414-2.332 0.91016-1.0547-0.51953-0.14063-3.2656-0.015626-3.6328 0.011719-0.027344 0.019532-0.054687 0.027344-0.082031l7.2383-24.258c0.32031-1.0703-0.60156-2.1016-1.7031-1.9023zm10.133-7.6133c3.0391 0 5.5-2.6875 5.5-6s-2.4609-6-5.5-6-5.5 2.6875-5.5 6 2.4609 6 5.5 6z" fill-rule="evenodd"/>
<text x="0.0" y="117.5" font-size="5.0" font-weight="bold" font-family="Arbeit Regular, Helvetica, Arial-Unicode, Arial, Sans-serif" fill="#000000">Created by Ashok</text><text x="0.0" y="122.5" font-size="5.0" font-weight="bold" font-family="Arbeit Regular, Helvetica, Arial-Unicode, Arial, Sans-serif" fill="#000000">from Noun Project</text></svg>