<svg xmlns:x="http://ns.adobe.com/Extensibility/1.0/" xmlns:i="http://ns.adobe.com/AdobeIllustrator/10.0/" xmlns:graph="http://ns.adobe.com/Graphs/1.0/" xmlns="http://www.w3.org/2000/svg" xmlns:xlink="http://www.w3.org/1999/xlink" xmlns:a="http://ns.adobe.com/AdobeSVGViewerExtensions/3.0/" version="1.0" x="0px" y="0px" viewBox="0 0 127.559 159.44875" enable-background="new 0 0 127.559 127.559" xml:space="preserve"><g><path d="M105.761,108.211H24.977c-0.004,0-0.007,0-0.01,0H24.96l0,0c-0.406-0.009-0.733-0.341-0.733-0.75   c0-0.414,0.335-0.749,0.749-0.75l0,0c0.354-0.001,8.662-0.097,8.662-6.875V53.588c0-4.619,3.758-8.376,8.376-8.376h19.98   c0.414,0,0.75,0.336,0.75,0.75s-0.336,0.75-0.75,0.75h-19.98c-3.791,0-6.876,3.084-6.876,6.876v46.249   c0,3.496-1.852,5.635-4.116,6.875h74.739c3.791,0,6.875-3.084,6.875-6.875V53.588c0-3.792-3.084-6.876-6.875-6.876h-4.67   c-0.414,0-0.75-0.336-0.75-0.75s0.336-0.75,0.75-0.75h4.67c4.618,0,8.375,3.757,8.375,8.376v46.249   C114.136,104.455,110.379,108.211,105.761,108.211z"/><path d="M25.162,108.207c-11.739-0.098-11.739-6.96-11.739-11.061V32.718c0-4.619,3.758-8.376,8.376-8.376h19.126   c0.173,0,0.34,0.06,0.474,0.168l8.61,7.005h12.849c0.414,0,0.75,0.336,0.75,0.75s-0.336,0.75-0.75,0.75H49.742   c-0.173,0-0.34-0.06-0.474-0.168l-8.61-7.005H21.799c-3.791,0-6.876,3.085-6.876,6.876v64.429c0,4.221,0,9.475,10.221,9.561   c1.394-0.045,8.494-0.593,8.494-6.871V53.588c0-4.619,3.758-8.376,8.376-8.376h19.98c0.414,0,0.75,0.336,0.75,0.75   s-0.336,0.75-0.75,0.75h-19.98c-3.791,0-6.876,3.084-6.876,6.876v46.249C35.138,107.659,26.183,108.174,25.162,108.207z"/><g><path d="M88.371,73.585H74.712c-0.414,0-0.75-0.336-0.75-0.75V60.051c-7.901-3.054-13.296-10.689-13.482-19.166    c-0.248-11.265,8.687-20.913,19.916-21.508c12.172-0.641,22.214,9.04,22.214,21.036c0,8.689-5.398,16.514-13.488,19.638v12.784    C89.121,73.25,88.785,73.585,88.371,73.585z M75.462,72.085h12.159V59.53c0-0.317,0.199-0.6,0.498-0.706    c7.77-2.777,12.99-10.176,12.99-18.41c-0.001-11.143-9.374-20.138-20.634-19.538c-10.43,0.552-18.728,9.514-18.496,19.977    c0.177,8.036,5.395,15.258,12.985,17.972c0.298,0.106,0.497,0.389,0.497,0.706V72.085z"/><path d="M89.658,77.378H73.426c-1.319,0-2.393-1.187-2.393-2.646s1.073-2.646,2.393-2.646h16.232c1.319,0,2.393,1.187,2.393,2.646    S90.978,77.378,89.658,77.378z M73.426,73.585c-0.483,0-0.893,0.525-0.893,1.146s0.409,1.146,0.893,1.146h16.232    c0.483,0,0.893-0.525,0.893-1.146s-0.409-1.146-0.893-1.146H73.426z"/><path d="M89.658,81.172H73.426c-1.319,0-2.393-1.187-2.393-2.646c0-1.46,1.073-2.647,2.393-2.647h16.232    c1.319,0,2.393,1.188,2.393,2.647C92.051,79.985,90.978,81.172,89.658,81.172z M73.426,77.378c-0.483,0-0.893,0.525-0.893,1.147    c0,0.622,0.409,1.146,0.893,1.146h16.232c0.483,0,0.893-0.525,0.893-1.146c0-0.622-0.409-1.147-0.893-1.147H73.426z"/><path d="M86.545,84.965H76.538c-1.319,0-2.393-1.187-2.393-2.646s1.073-2.646,2.393-2.646h10.007c1.319,0,2.394,1.187,2.394,2.646    S87.864,84.965,86.545,84.965z M76.538,81.172c-0.483,0-0.893,0.525-0.893,1.146s0.409,1.146,0.893,1.146h10.007    c0.484,0,0.894-0.525,0.894-1.146s-0.409-1.146-0.894-1.146H76.538z"/><path d="M81.542,73.585c-0.414,0-0.75-0.336-0.75-0.75V54.464c0-0.414,0.336-0.75,0.75-0.75s0.75,0.336,0.75,0.75v18.371    C82.292,73.25,81.956,73.585,81.542,73.585z"/><path d="M81.461,55.214c-0.192,0-0.384-0.073-0.53-0.22l-6.565-6.566c-0.293-0.293-0.293-0.768,0-1.061s0.768-0.293,1.061,0    l6.565,6.566c0.293,0.293,0.293,0.768,0,1.061C81.845,55.141,81.653,55.214,81.461,55.214z"/><path d="M81.542,55.214c-0.192,0-0.384-0.073-0.53-0.22c-0.293-0.293-0.293-0.768,0-1.061l6.565-6.566    c0.293-0.293,0.768-0.293,1.061,0s0.293,0.768,0,1.061l-6.565,6.566C81.926,55.141,81.734,55.214,81.542,55.214z"/></g></g></svg>