<svg xmlns="http://www.w3.org/2000/svg" xmlns:xlink="http://www.w3.org/1999/xlink" version="1.1" x="0px" y="0px" viewBox="0 0 100 125" enable-background="new 0 0 100 100" xml:space="preserve"><path d="M87.721,77.189c-0.934,4.849-3.163,9.984-8.375,11.216c-4.04,0.955-9.328,0.683-12.592,0.366  c-0.847,0.699-1.719,1.351-2.621,1.939c-4.3,2.806-9.162,4.289-14.062,4.289c-4.922,0-9.804-1.496-14.119-4.327  c-0.887-0.581-1.745-1.225-2.579-1.914c-3.252,0.321-8.627,0.615-12.72-0.354c-5.212-1.232-7.44-6.367-8.375-11.216  c-2.737-14.208-1.219-26.663,1.737-38.098c2.956-11.434,7.866-23.889,19.619-30.11c5.686-3.01,11.53-3.931,16.317-3.98L49.951,5  c0.016,0,0.033,0.001,0.05,0.001C50.016,5.001,50.033,5,50.05,5l0.001,0.002c4.786,0.049,10.63,0.971,16.315,3.98  c11.754,6.221,16.663,18.676,19.619,30.11C88.94,50.527,90.458,62.981,87.721,77.189z M74.694,72.792  c0.047-0.12,0.097-0.237,0.142-0.358c0.503-1.337,0.939-2.724,1.306-4.149c0.152-0.543,0.291-1.098,0.431-1.651  c0.345,0.106,0.727,0.169,1.156,0.169c0.693,0,1.263-0.333,1.727-0.82c1.161-4.299,1.527-9.104,0.494-14.319  c-0.334-0.083-0.701-0.13-1.113-0.13c-0.046,0-0.09,0.005-0.136,0.007c0.038-0.988,0.062-1.982,0.062-2.986  c0-0.453-0.009-0.902-0.016-1.352c-0.272-0.793-0.577-1.595-0.917-2.404c-0.454,10.448-2.422,12.113-5.299,14.536  c2.877-3.634,2.906-16.58-6.965-24.074c-7.107-5.396-5.644-6.964-7.751-9.953c-2.329,2.99-16.277,4.557-23.383,9.953  c-9.87,7.494-9.841,20.44-6.963,24.074c-2.877-2.423-4.845-4.088-5.3-14.536c-0.282,0.671-0.534,1.335-0.769,1.995  c-0.013,0.584-0.022,1.172-0.022,1.761c0,1.007,0.024,2.003,0.063,2.994c-0.093-0.005-0.185-0.014-0.28-0.014  c-0.411,0-0.778,0.047-1.113,0.13c-1.033,5.215-0.666,10.02,0.495,14.319c0.465,0.487,1.034,0.82,1.727,0.82  c0.483,0,0.911-0.074,1.289-0.208c0.141,0.56,0.282,1.12,0.435,1.67c0.372,1.449,0.816,2.857,1.329,4.216  c0.043,0.113,0.09,0.223,0.133,0.335c2.588,6.665,6.813,12.128,12.016,15.54c3.772,2.475,8.057,3.872,12.599,3.872  c4.522,0,8.788-1.385,12.547-3.839C67.852,84.976,72.099,79.489,74.694,72.792z M50.896,67.69c0.478-0.144,0.855-0.574,1.12-1.279  c0.434-1.153,0.542-3.05,0.036-3.862c-0.725-1.158-2.311-1.208-3.769-1.104c-0.314,0.022-0.55,0.295-0.528,0.609  c0.023,0.314,0.293,0.555,0.608,0.527c1.546-0.11,2.409,0.072,2.722,0.571c0.221,0.354,0.249,1.836-0.136,2.857  c-0.165,0.438-0.332,0.574-0.382,0.589c-0.301,0.091-0.472,0.409-0.382,0.709c0.074,0.247,0.301,0.406,0.545,0.406  C50.787,67.714,50.842,67.706,50.896,67.69z M42.56,52.214c-0.89-1.508-2.859-2.523-5.016-2.585  c-1.48-0.035-2.898,0.351-3.979,1.111c-1.12,0.786-1.755,1.904-1.789,3.082c-0.007,0.237,0.18,0.48,0.418,0.48  c0.004,0,0.008,0,0.013,0c0.232,0,0.423-0.222,0.43-0.455c0.025-0.899,0.531-1.758,1.423-2.384c0.57-0.399,1.252-0.691,1.993-0.841  c-0.557,0.454-0.922,1.132-0.945,1.906c-0.041,1.414,1.072,2.59,2.486,2.631c1.414,0.041,2.593-1.072,2.633-2.487  c0.02-0.68-0.23-1.305-0.649-1.776c0.983,0.376,1.79,0.988,2.243,1.756c0.121,0.205,0.384,0.272,0.589,0.151  C42.612,52.683,42.681,52.419,42.56,52.214z M66.574,50.951c-1.035-0.82-2.424-1.295-3.908-1.337  c-2.193-0.057-4.169,0.817-5.158,2.293c-0.132,0.198-0.079,0.465,0.118,0.597c0.197,0.132,0.465,0.079,0.597-0.118  c0.578-0.863,1.626-1.489,2.852-1.76c-0.578,0.454-0.958,1.15-0.982,1.942c-0.041,1.414,1.073,2.592,2.485,2.633  c1.414,0.041,2.593-1.071,2.633-2.486c0.022-0.766-0.296-1.46-0.815-1.945c0.613,0.196,1.173,0.483,1.644,0.856  c0.855,0.677,1.311,1.439,1.285,2.338c-0.007,0.237,0.18,0.337,0.417,0.337c0.005,0,0.008,0,0.013,0c0.231,0,0.423-0.079,0.43-0.313  C68.219,52.811,67.647,51.801,66.574,50.951z M71.162,48.114c0.424-0.536-2.302-4.439-6.474-4.872  c-3.406-0.379-6.402,1.463-6.662,2.039c-0.26,0.577,0.564,1.188,1.143,0.993c0.579-0.196,2.407-1.926,6.188-1.506  C69.138,45.187,70.738,48.65,71.162,48.114z M34.496,44.768c3.781-0.42,5.609,1.31,6.188,1.506c0.579,0.196,1.404-0.416,1.143-0.993  c-0.26-0.577-3.256-2.418-6.662-2.039c-4.172,0.433-6.898,4.336-6.474,4.872C29.115,48.65,30.715,45.187,34.496,44.768z   M59.946,74.186c0,0-2.711,9.493-9.948,9.493s-10.485-9.671-10.485-9.671c-0.023-0.581,1.055,0.174,1.746-0.09  c1.552-0.591,3.572-1.055,5.179-1.055c2.322,0,3.022,1.02,3.675,1.02s1.656-0.93,3.068-0.93c0.842,0,3.116,0.58,4.77,1.231  C59.074,74.626,59.451,73.691,59.946,74.186z M58.778,74.91c-1.171,0.406-2.408-0.057-4.915-0.034  c-1.442,0.014-2.841,0.481-4.052,0.46c-1.084-0.018-2.17-0.56-3.422-0.62c-2.494-0.118-4.597,0.329-5.98-0.154  c1.629,1.987,2.65,5.757,9.509,5.757C56.834,80.318,57.163,76.938,58.778,74.91z"/></svg>