<svg xmlns="http://www.w3.org/2000/svg" xmlns:xlink="http://www.w3.org/1999/xlink" version="1.1" x="0px" y="0px" viewBox="0 0 66 82.5" enable-background="new 0 0 66 66" xml:space="preserve"><g><rect x="31.9902344" y="54.3203125" width="2" height="1.4921875"/><rect x="31.9902344" y="50.4042969" width="2" height="1.4912109"/><rect x="31.9902344" y="46.4873047" width="2" height="1.4921875"/><path d="M61.9003868,50.8076172c-0.3017578-2.2421875-1.8134766-4.0966797-3.9433594-4.8388672l-7.3726807-2.5774536   l-0.6097412-25.8043823C49.7539024,8.2861338,42.2929649,1.000001,32.9902306,1.000001s-16.76367,7.2861328-16.9843731,16.5869141   l-0.6097412,25.8045654L8.0244122,45.96875c-2.1308599,0.7421875-3.6425786,2.5966797-3.9443364,4.8398438l-1.75,13.0585938   c-0.0380859,0.2861328,0.0488281,0.5742188,0.2382813,0.7910156C2.7587867,64.8759766,3.0332007,65,3.3212867,65h29.6689434   c0.0078125,0,0.015625,0,0.0195313,0h29.6494141c0.0078125,0,0.0146484,0,0.0195313,0c0.5527344,0,1-0.4472656,1-1   c0-0.1152344-0.0185547-0.2255859-0.0546875-0.328125L61.9003868,50.8076172z M18.0058575,17.6337891   C18.2001934,9.4277353,24.7822247,3.000001,32.9902306,3.000001s14.7900391,6.4277344,14.984375,14.6337881l0.59198,25.052124   c-0.1004448-0.035141-6.8643532-2.4016228-6.6329956-2.3206787l-1.5010376-4.6183472   c2.869812-2.2745361,4.578186-5.7288208,4.578186-9.4119263V15.9707041c0-0.3007813-0.1357422-0.5859375-0.3691406-0.7763672   c-0.2333984-0.1884766-0.5429688-0.2646484-0.8349609-0.2021484c-10.7695313,2.2421865-20.7070293-4.9375-20.8066387-5.0117188   c-0.4453125-0.3251953-1.0712891-0.2314453-1.3974609,0.2128906c-0.3271484,0.4453125-0.2333984,1.0703125,0.2109375,1.3974609   c0.4189453,0.3085938,10.0322266,7.2871084,21.1972637,5.5761709v9.1679688   c0,5.4784489-4.4328499,10.0195313-10.0205078,10.0195313c-0.5129395,0-1.0209942-0.0385132-1.5208111-0.114502   c-4.8011341-0.7297058-8.4996948-4.8585491-8.4996948-9.9050293V15.9707041c0-0.5527344-0.4472656-1-1-1s-1,0.4472656-1,1   v10.3642569c0,3.6508541,1.6255074,7.1103249,4.5733032,9.4267578l-1.4961548,4.6035156   c-0.1010017,0.0353394-7.077858,2.4764519-6.6329956,2.3208008L18.0058575,17.6337891z M23.7929668,42.5732422   c1.0178661-0.439579,1.762722-0.3839607,2.0029297-1.1191406l1.4765625-4.5429688   c0.0405884,0.0219727,0.0846558,0.0361938,0.1254883,0.0576782c1.7178955,0.9048462,3.6233521,1.3856812,5.5922832,1.3856812   c2.0170403,0,4.0027618-0.5167999,5.7177734-1.4433594l1.4765625,4.5429688   c0.0966797,0.2958984,0.3261719,0.5302734,0.6201172,0.6337891l1.3828125,0.4853516l-0.9703369,2.0172729l-8.2268066,17.1018066   l-8.8457623-18.3880615L23.7929668,42.5732422z M6.0624976,51.0751953   c0.2001953-1.4921875,1.2041016-2.7246094,2.6210942-3.2177734l13.2098389-4.618103L31.399229,63H14.7617168v-8.9492188h-2V63   H4.4638648L6.0624976,51.0751953z M53.2187462,63v-8.9492188h-2V63H34.581234l9.5057983-19.7606812l13.2108154,4.618103   c1.4160156,0.4931641,2.4199219,1.7255859,2.6201172,3.2167969L61.5165977,63H53.2187462z"/></g></svg>