<svg xmlns="http://www.w3.org/2000/svg" xmlns:xlink="http://www.w3.org/1999/xlink" version="1.1" x="0px" y="0px" viewBox="0 0 60 75" style="enable-background:new 0 0 60 60;" xml:space="preserve"><path d="M53.6,15.15c-0.47-0.29-1.09-0.14-1.38,0.33l-6.04,9.85l-0.7-0.47c-0.22-0.15-0.49-0.2-0.75-0.15  c-0.26,0.05-0.49,0.21-0.64,0.43l-2.06,3.09l-1.79-1.02c-0.25-0.14-0.55-0.17-0.83-0.08l-10.17,3.54l-14.33-7.28v-1.41  c1.12-0.12,2-1.06,2-2.22V17c0-0.55-0.45-1-1-1h-8c-0.55,0-1,0.45-1,1v2.76c0,1.15,0.88,2.09,2,2.22V26c0,0.36,0.2,0.7,0.52,0.88  l11.88,6.55l-7.42,2.58C13.07,35.38,12.05,35,10.93,35c-2.76,0-5,2.24-5,5s2.24,5,5,5c2.41,0,4.43-1.72,4.9-4h18.2  c0.46,2.28,2.48,4,4.9,4s4.43-1.72,4.9-4h6.1c0.55,0,1-0.45,1-1v-6.12c0-0.36-0.19-0.69-0.5-0.87l-3.16-1.81l1.83-2.74  c0.15-0.22,0.2-0.49,0.15-0.75c-0.05-0.26-0.21-0.49-0.43-0.64l-0.96-0.64l6.08-9.91C54.22,16.05,54.07,15.44,53.6,15.15z M10.93,43  c-1.65,0-3-1.35-3-3s1.35-3,3-3s3,1.35,3,3S12.58,43,10.93,43z M45.2,27.08l0.75,0.5c0,0,0.01,0.01,0.01,0.01c0,0,0.01,0,0.01,0.01  l0.89,0.59l-1.35,2.03l-1.74-1L45.2,27.08z M9.17,20c-0.13,0-0.24-0.11-0.24-0.24V18h6v1.76c0,0.13-0.11,0.24-0.24,0.24H9.17z   M10.93,25.41V22h2v2c0,0.38,0.21,0.72,0.55,0.89l13.16,6.68l-2.77,0.96L10.93,25.41z M38.93,43c-1.65,0-3-1.35-3-3s1.35-3,3-3  s3,1.35,3,3S40.58,43,38.93,43z M48.93,34.46V39h-5.1c-0.46-2.28-2.48-4-4.9-4s-4.43,1.72-4.9,4h-18.2  c-0.1-0.49-0.29-0.94-0.52-1.36l24.34-8.47l2.13,1.22c0,0,0.01,0.01,0.01,0.01c0.01,0.01,0.02,0.01,0.03,0.01L48.93,34.46z"/></svg>