<svg xmlns="http://www.w3.org/2000/svg" xmlns:xlink="http://www.w3.org/1999/xlink" version="1.1" x="0px" y="0px" viewBox="0 0 60 75" style="enable-background:new 0 0 60 60;" xml:space="preserve"><path d="M52,53V18H8v35c0,0.55,0.45,1,1,1h4V39c0-0.55,0.45-1,1-1h10c0.55,0,1,0.45,1,1v15h26C51.55,54,52,53.55,52,53z M42,46h-6  c-4.56,0-8-5.59-8-13c0-7.41,3.44-13,8-13h6c4.56,0,8,5.59,8,13C50,40.41,46.56,46,42,46z"/><path d="M49.89,6.55C49.72,6.21,49.38,6,49,6H11c-0.38,0-0.72,0.21-0.89,0.55l-4,8c-0.16,0.31-0.14,0.68,0.04,0.98  C6.33,15.82,6.65,16,7,16h46c0.35,0,0.67-0.18,0.85-0.47c0.18-0.3,0.2-0.67,0.04-0.98L49.89,6.55z"/><path d="M37.62,22H36c-3.36,0-6,4.83-6,11c0,6.17,2.64,11,6,11h1.62C35.41,41.74,34,37.74,34,33S35.41,24.26,37.62,22z"/><path d="M41,33c0,2.35,0.67,3.72,1,3.98c0.33-0.26,1-1.63,1-3.98c0-2.35-0.67-3.72-1-3.98C41.67,29.28,41,30.65,41,33z"/><path d="M42,22c-3.36,0-6,4.83-6,11c0,6.17,2.64,11,6,11s6-4.83,6-11C48,26.83,45.36,22,42,22z M42,39c-2.06,0-3-3.11-3-6  s0.94-6,3-6s3,3.11,3,6S44.06,39,42,39z"/><text x="0" y="75" fill="#000000" font-size="5px" font-weight="bold" font-family="'Helvetica Neue', Helvetica, Arial-Unicode, Arial, Sans-serif">Created by Vectorstall</text><text x="0" y="80" fill="#000000" font-size="5px" font-weight="bold" font-family="'Helvetica Neue', Helvetica, Arial-Unicode, Arial, Sans-serif">from the Noun Project</text></svg>