<svg xmlns="http://www.w3.org/2000/svg" version="1.1" viewBox="-5.0 -10.0 110.0 135.0">
 <path d="m50 23.023-37.73 27.02c-1.8477 1.3164-4.418 0.89062-5.7461-0.95312l-2.6211-3.6602v0.003906c-1.3359-1.8828-0.90625-4.4883 0.96875-5.8398l42.695-30.57c1.4531-1.0625 3.4219-1.0625 4.8711 0l42.691 30.57c1.875 1.3477 2.3047 3.957 0.96875 5.8398l-2.6172 3.6602c-1.332 1.8398-3.8984 2.2656-5.75 0.94922zm7.4648 67.371v-21.211c-0.011719-4.1133-3.3516-7.4414-7.4648-7.4414s-7.4531 3.3281-7.4648 7.4414v21.32l-0.003906 0.03125-0.007812 0.070313-0.003907 0.03125-0.003906 0.035156-0.003906 0.03125-0.011719 0.03125-0.011719 0.035156-0.058593 0.15625-0.046876 0.09375-0.015624 0.027344-0.015626 0.03125 0.003907 0.003906c-0.24609 0.42969-0.69922 0.69141-1.1914 0.69141h-19.914c-2.3125-0.003907-4.1836-1.8789-4.1875-4.1875v-36.891c0-0.75781 0.61328-1.375 1.375-1.375 0.75781 0 1.375 0.61719 1.375 1.375v36.887c0 0.79688 0.64453 1.4414 1.4375 1.4453h18.539v-19.844c0.011719-5.6328 4.5781-10.191 10.211-10.191s10.199 4.5586 10.211 10.191v19.844h18.539c0.79297-0.007813 1.4375-0.64844 1.4414-1.4453v-36.887c0-0.75781 0.61719-1.3711 1.375-1.3711 0.75781 0 1.3711 0.61328 1.3711 1.3711v36.887c-0.003906 2.3125-1.8789 4.1836-4.1875 4.1914h-19.91c-0.49219-0.003907-0.94922-0.26563-1.1953-0.69141l-0.015625-0.03125-0.015625-0.027343-0.03125-0.0625-0.011719-0.03125-0.015624-0.03125-0.046876-0.125-0.011718-0.035157-0.003906-0.03125-0.011719-0.03125-0.003907-0.035156-0.003906-0.03125-0.007812-0.070313v-0.03125l-0.003906-0.035156 0.003906-0.039062zm-46.793-42.586 38.508-27.578v0.003906c0.48047-0.35938 1.1328-0.36719 1.6211-0.015625l38.527 27.594v-0.003906c0.29688 0.21094 0.66797 0.29688 1.0273 0.23828s0.67969-0.25781 0.89453-0.55469l2.6172-3.6602h-0.003907c0.46484-0.64844 0.31641-1.5469-0.33203-2.0117l-42.691-30.566c-0.24219-0.17969-0.53516-0.27734-0.83984-0.28125-0.30078 0.003906-0.59375 0.10156-0.83594 0.28125l-42.695 30.566c-0.30859 0.22266-0.51953 0.55859-0.58203 0.93359-0.066407 0.37891 0.023437 0.76953 0.25 1.0781l2.6211 3.6602c0.21094 0.29687 0.52734 0.49609 0.88672 0.55469s0.73047-0.027344 1.0273-0.23828z"/>
</svg>