<svg xmlns="http://www.w3.org/2000/svg" xmlns:xlink="http://www.w3.org/1999/xlink" version="1.1" x="0px" y="0px" viewBox="0 0 64 80" enable-background="new 0 0 64 64" xml:space="preserve"><g><path d="M36.631,46.784v-2.618c4.857-0.795,8.708-4.251,9.652-8.652c2.697-0.141,4.852-2.326,4.852-5.015   c0-2.04-1.231-3.823-3.101-4.603c1.069-3.13,2.11-7.569,1.06-11.117C47.472,9.298,41.081,6.025,32,6.025   c-7.425,0-13.867-1.009-13.932-1.02c-0.193-0.029-0.39,0.056-0.497,0.222c-0.108,0.166-0.107,0.38,0,0.545l1.161,1.784   l-2.889-0.169c-0.213-0.016-0.414,0.114-0.494,0.315c-0.079,0.2-0.021,0.43,0.145,0.567l1.116,0.932h-1.922   c-0.189,0-0.362,0.107-0.447,0.276c-0.085,0.17-0.066,0.373,0.048,0.524l1.688,2.245c-0.621,1.287-2.73,6.538-0.162,13.72   c-1.778,0.817-2.949,2.572-2.949,4.531c0,2.689,2.156,4.874,4.852,5.015c0.945,4.403,4.799,7.86,9.658,8.653v2.625   c-0.965,0.212-1.891,0.489-2.775,0.823c-0.001,0-0.001,0-0.002,0.001c-5.309,2.007-9.041,6.087-9.62,10.824   c-0.034,0.274,0.161,0.523,0.436,0.557C15.436,58.999,15.456,59,15.477,59c0.249,0,0.464-0.186,0.495-0.439   c0.525-4.289,3.893-8.008,8.72-9.915c2.088,1.165,4.67,1.809,7.309,1.809c2.658,0,5.238-0.648,7.307-1.818   c4.821,1.905,8.19,5.614,8.721,9.888c0.031,0.253,0.247,0.438,0.495,0.438c0.021,0,0.042-0.001,0.063-0.004   c0.274-0.034,0.469-0.283,0.435-0.558c-0.585-4.715-4.31-8.781-9.604-10.789c-0.009-0.003-0.018-0.008-0.027-0.01   C38.51,47.27,37.59,46.995,36.631,46.784z M50.135,30.499c0,2.082-1.62,3.781-3.685,3.999c0.039-0.356,0.06-0.717,0.06-1.083   v-3.747c0.154-0.317,0.642-1.36,1.19-2.833C49.17,27.472,50.135,28.886,50.135,30.499z M17.001,12.441   c0.096-0.172,0.082-0.387-0.037-0.545l-1.273-1.694h2.3c0.211,0,0.398-0.132,0.47-0.33c0.072-0.197,0.012-0.419-0.149-0.554   l-1.012-0.844l2.363,0.138c0.182,0.02,0.367-0.086,0.462-0.248c0.095-0.163,0.089-0.365-0.014-0.523L19.01,6.149   C21.18,6.438,26.305,7.025,32,7.025c8.613,0,14.646,3.004,16.135,8.036c1.149,3.883-0.483,9.14-1.625,12.068v-4.155   c0-3.862-2.567-4.357-4.804-4.357c-1.874,0-3.713,0.867-4.803,1.499l0.292-1.59c0.044-0.239-0.093-0.475-0.321-0.558   c-0.225-0.082-0.484,0.011-0.606,0.223c-0.067,0.117-1.715,2.882-7.342,2.882c-3.032,0-6.65-0.814-10.753-2.422   c-0.155-0.059-0.327-0.04-0.465,0.053c-0.136,0.093-0.218,0.248-0.218,0.413v8.334C13.564,18.797,16.964,12.509,17.001,12.441z    M13.865,30.499c0-1.543,0.912-2.931,2.305-3.598c0.365,0.899,0.795,1.823,1.32,2.774v3.741c0,0.365,0.022,0.726,0.06,1.083   C15.485,34.28,13.865,32.581,13.865,30.499z M18.49,33.415v-13.57c3.941,1.479,7.449,2.229,10.436,2.229   c3.634,0,5.791-1.098,6.977-2.045l-0.191,1.041c-0.037,0.201,0.054,0.405,0.228,0.514c0.173,0.109,0.397,0.101,0.563-0.022   c0.026-0.02,2.656-1.943,5.205-1.943c2.737,0,3.804,0.941,3.804,3.357v10.44c0,5.477-4.936,9.933-11.003,9.933h-5.014   C23.426,43.348,18.49,38.892,18.49,33.415z M32,49.455c-2.133,0-4.22-0.448-6.001-1.267c0.638-0.198,1.292-0.374,1.97-0.509   c0.226-0.045,0.377-0.239,0.392-0.458c0.004-0.011,0.015-0.02,0.015-0.032v-2.893c0.368,0.031,0.74,0.052,1.117,0.052h5.014   c0.379,0,0.754-0.02,1.124-0.052v2.894c0,0.007,0.007,0.011,0.008,0.017c0.012,0.222,0.163,0.418,0.392,0.463   c0.68,0.136,1.336,0.312,1.976,0.512C36.239,49.004,34.15,49.455,32,49.455z"/></g></svg>