<svg xmlns="http://www.w3.org/2000/svg" version="1.1" viewBox="-5.0 -10.0 110.0 135.0">
 <path d="m10.312 35.633 2.1875-2.1875c0.22266-0.22266 0.58984-0.22266 0.8125 0 0.22266 0.22266 0.22266 0.58984 0 0.8125l-3 3v8.0039l2.1797-2.1797c0.22266-0.22266 0.58984-0.22266 0.8125 0 0.22266 0.22266 0.22266 0.58984 0 0.8125l-2.9922 2.9922v8.1602l2.2969-2.2969c0.22266-0.22266 0.58984-0.22266 0.8125 0s0.22266 0.58984 0 0.8125l-3.1094 3.1094v8.0039l2.2891-2.2891c0.22266-0.22266 0.58984-0.22266 0.8125 0 0.22266 0.22266 0.22266 0.58984 0 0.8125l-3.1016 3.1016v0.69922c0 1.8281 0.74609 3.4883 1.9531 4.6914 0.82031 0.82031 1.8555 1.4297 3.0078 1.7344v-48.461c-1.1523 0.30469-2.1875 0.91406-3.0078 1.7344-1.2031 1.2031-1.9531 2.8672-1.9531 4.6914zm9.8203-10.887h-3.1719c-0.17969 0-0.35938 0.007812-0.53516 0.023437v5.1289l3.7109-2.9766v-2.1758zm17.562 12.027-3-3c-0.22266-0.22266-0.22266-0.58984 0-0.8125 0.22266-0.22266 0.58984-0.22266 0.8125 0l2.1875 2.1875v-3.7578c0-1.8281-0.74609-3.4883-1.9531-4.6914-0.74609-0.74609-1.6719-1.3203-2.6992-1.6445v48.289c1.0312-0.32812 1.9531-0.89844 2.6992-1.6445 1.2031-1.2031 1.9531-2.8672 1.9531-4.6914v-1.1836l-2.9922-2.9922c-0.22266-0.22266-0.22266-0.58984 0-0.8125 0.22266-0.22266 0.58984-0.22266 0.8125 0l2.1797 2.1797v-8.0039l-3.1094-3.1094c-0.22266-0.22266-0.22266-0.58984 0-0.8125 0.22266-0.22266 0.58984-0.22266 0.8125 0l2.2969 2.2969v-8.1602l-2.9922-2.9922c-0.22266-0.22266-0.22266-0.58984 0-0.8125 0.22266-0.22266 0.58984-0.22266 0.8125 0l2.1797 2.1797zm-9.5117-12.027v2.1758l3.7109 2.9766v-5.0977c-0.27734-0.035156-0.55859-0.054687-0.83984-0.054687zm-1.75 48.902h-1.8555v-48.902h2.4531v2.4492c0 0.16797 0.074219 0.33203 0.21484 0.44531l4.6445 3.7266v7.6289l-3.7109-2.9766v-2.75c0-0.31641-0.25781-0.57422-0.57422-0.57422-0.31641 0-0.57422 0.25781-0.57422 0.57422v3.0234c0 0.16797 0.074219 0.33203 0.21484 0.44531l4.6445 3.7266v7.8164l-3.7109-2.9766v-2.75c0-0.31641-0.25781-0.57422-0.57422-0.57422-0.31641 0-0.57422 0.25781-0.57422 0.57422v3.0234c0 0.16797 0.074219 0.33203 0.21484 0.44531l4.6445 3.7266v7.9805l-3.7109-2.9766v-2.75c0-0.31641-0.25781-0.57422-0.57422-0.57422-0.31641 0-0.57422 0.25781-0.57422 0.57422v3.0234c0 0.16797 0.074219 0.33203 0.21484 0.44531l4.6445 3.7266v7.6211l-3.7109-2.9766v-2.75c0-0.31641-0.25781-0.57422-0.57422-0.57422-0.31641 0-0.57422 0.25781-0.57422 0.57422v3.0234c0 0.16797 0.074219 0.33203 0.21484 0.44531l4.6445 3.7266v5.2969c-0.27734 0.035156-0.55859 0.054687-0.83984 0.054687h-2.8672l-0.65625-0.52734v-2.75c0-0.31641-0.25781-0.57422-0.57422-0.57422s-0.57422 0.25781-0.57422 0.57422v3.0234c0 0.085937 0.019532 0.17578 0.058594 0.25391zm41.363-24.133c-0.32812-0.65625-0.90625-1.1875-1.6562-1.4375-0.75391-0.25-1.5352-0.17188-2.1914 0.15625-0.65234 0.32812-1.1836 0.90234-1.4336 1.6484l-0.007813 0.019532c-0.24609 0.75-0.16797 1.5273 0.16016 2.1797 0.32812 0.65234 0.90234 1.1836 1.6484 1.4336l0.019532 0.007813c0.75 0.24609 1.5273 0.16797 2.1797-0.16016 0.65625-0.32812 1.1875-0.90625 1.4375-1.6562 0.25-0.75391 0.17188-1.5352-0.15625-2.1914zm-1.2969-2.5234c1.0508 0.35156 1.8633 1.0938 2.3242 2.0117 0.46094 0.91797 0.57031 2.0117 0.21875 3.0625-0.35156 1.0508-1.0938 1.8633-2.0117 2.3242s-2.0117 0.57031-3.0625 0.21875-1.8633-1.0938-2.3203-2.0117c-0.46094-0.91797-0.57031-2.0117-0.21875-3.0625 0.35156-1.0508 1.0938-1.8633 2.0117-2.3203 0.91797-0.46094 2.0117-0.57031 3.0625-0.21875zm2.9922 19.734c-1.9609 0.52734-4.0312 0.69531-6.1172 0.45703 0.81641-2.6445 1.3008-5.1094 1.4219-7.0117 0.14453-2.2812-0.26953-3.8555-1.2891-4.1953-1.0156-0.33594-2.2891 0.67578-3.543 2.5859-1.043 1.5938-2.1328 3.8594-3.0625 6.4688-1.9531-1.1406-3.6133-2.6523-4.9141-4.4062 2.4766-1.2969 4.5898-2.7109 6.0391-3.9844 1.7344-1.5195 2.5625-2.9375 2.082-3.8984-0.47656-0.95313-2.082-1.1406-4.3008-0.68359-1.8438 0.38281-4.1836 1.1953-6.6641 2.3672-0.40234-1.7734-0.51172-3.625-0.30078-5.4844 2.6445 0.81641 5.1094 1.3008 7.0117 1.4219 2.2812 0.14453 3.8555-0.26953 4.1953-1.2891 0.33594-1.0156-0.67578-2.2891-2.5859-3.543-1.5938-1.043-3.8594-2.1328-6.4688-3.0625 1.0234-1.7539 2.3477-3.2695 3.8789-4.5039 1.293 2.4453 2.6914 4.5234 3.9453 5.9492 1.5078 1.7109 2.9141 2.5273 3.8711 2.0508 0.95703-0.48047 1.1445-2.0977 0.67188-4.3398-0.39453-1.8711-1.2266-4.2461-2.4141-6.75 1.9648-0.53125 4.0469-0.69922 6.1367-0.46094-0.81641 2.6445-1.3008 5.1094-1.4219 7.0117-0.14453 2.2812 0.26953 3.8555 1.2891 4.1953 1.0156 0.33594 2.293-0.67578 3.543-2.5859 1.043-1.5938 2.1328-3.8594 3.0625-6.4688 1.8477 1.0781 3.4297 2.4844 4.6953 4.1211-2.4609 1.2969-4.5547 2.6992-5.9922 3.9648-1.7227 1.5117-2.543 2.9258-2.0664 3.8828 0.47656 0.95312 2.0898 1.1445 4.3203 0.67578 1.8594-0.38672 4.2188-1.2109 6.7109-2.3906 0.46875 1.8789 0.60938 3.8516 0.38281 5.8359-2.6445-0.81641-5.1094-1.3008-7.0117-1.4219-2.2812-0.14453-3.8555 0.26953-4.1953 1.2891-0.33594 1.0156 0.67578 2.293 2.5859 3.543 1.5938 1.043 3.8594 2.1328 6.4688 3.0625-1.0273 1.7617-2.3555 3.2812-3.8945 4.5195-1.293-2.4453-2.6914-4.5273-3.9453-5.9531-1.5078-1.7148-2.9141-2.5312-3.8711-2.0508-0.95703 0.48047-1.1445 2.0977-0.67578 4.3398 0.39453 1.8711 1.2227 4.2422 2.4141 6.75zm6.2578-1.7734c-0.019531 0.015625-0.042969 0.03125-0.0625 0.046875-0.80859 0.59375-1.6641 1.1172-2.5586 1.5625-0.84375 0.42188-1.7188 0.77734-2.6172 1.0586-0.023438 0.007812-0.046875 0.015625-0.070313 0.023437-2.4922 0.77344-5.1758 1-7.8633 0.58594-0.027344-0.003907-0.054687-0.007813-0.082031-0.011719-0.94531-0.14844-1.8867-0.37891-2.8242-0.69141s-1.8281-0.69531-2.6758-1.1406c-0.027344-0.011719-0.054688-0.027344-0.078125-0.042969-2.5469-1.3594-4.6562-3.2891-6.2227-5.5742-0.015624-0.019531-0.03125-0.042969-0.042968-0.0625-0.4375-0.64453-0.83203-1.3203-1.1797-2.0156-0.52344-1.0508-0.94531-2.1484-1.2539-3.2852l-0.003906-0.019531c-0.625-2.3164-0.78516-4.7773-0.40625-7.2422 0.003906-0.027343 0.007812-0.054687 0.011718-0.082031 0.14844-0.94531 0.37891-1.8906 0.69141-2.8242 0.3125-0.9375 0.69531-1.8281 1.1406-2.6758 0.011718-0.027344 0.027344-0.054688 0.042968-0.078125 1.2461-2.3359 2.9727-4.3047 5.0156-5.8242 0.019531-0.015625 0.039062-0.03125 0.0625-0.046875 0.8125-0.59766 1.6758-1.125 2.5742-1.5781 0.83594-0.41797 1.7031-0.76953 2.5977-1.0508 0.023438-0.007813 0.046876-0.015625 0.070313-0.023437 2.5-0.77734 5.1914-1.0078 7.8867-0.59375 0.027344 0.003906 0.054687 0.007812 0.078125 0.011718 0.94531 0.14844 1.8906 0.37891 2.8281 0.69141s1.8281 0.69531 2.6758 1.1406c0.027344 0.011718 0.050781 0.027343 0.078125 0.042968 2.4336 1.2969 4.4688 3.1211 6.0117 5.2734 0.015625 0.019531 0.03125 0.039062 0.042969 0.0625 0.52344 0.73828 0.98828 1.5117 1.3906 2.3164 0.46484 0.92969 0.84766 1.9023 1.1445 2.9023 0.007812 0.023437 0.015625 0.046875 0.019531 0.070312 0.70312 2.4141 0.89844 4.9961 0.5 7.582-0.003906 0.027343-0.007813 0.050781-0.011719 0.078124-0.14844 0.94531-0.37891 1.8906-0.69141 2.8281s-0.69531 1.8281-1.1406 2.6758c-0.011719 0.027343-0.027344 0.054687-0.042969 0.078125-1.25 2.3438-2.9844 4.3164-5.0312 5.8359zm-26.32-32.809c1.3438-1.1328 2.8008-2.1172 4.3438-2.9375l0.63281 1.2617c0.14062 0.28125 0.48438 0.39844 0.76953 0.25781 0.28125-0.14062 0.39844-0.48437 0.25781-0.76953l-0.63281-1.2656c1.582-0.74609 3.2422-1.3242 4.9531-1.7188l0.28516 1.3867c0.0625 0.30859 0.36719 0.51172 0.67578 0.44531 0.30859-0.0625 0.51172-0.36719 0.44531-0.67578l-0.28516-1.3906c1.707-0.3125 3.4609-0.44141 5.2305-0.37891l-0.085938 1.418c-0.019531 0.31641 0.22266 0.58984 0.53906 0.60547 0.31641 0.019532 0.58984-0.22266 0.60547-0.53906l0.085938-1.418c1.7148 0.14453 3.4414 0.47266 5.1484 0.99609l-0.44531 1.3438c-0.097656 0.30078 0.0625 0.625 0.36328 0.72266 0.30078 0.097657 0.625-0.0625 0.72266-0.36328l0.44531-1.3438c1.6836 0.60156 3.2617 1.375 4.7227 2.2852l-0.78516 1.1914c-0.17188 0.26563-0.10156 0.62109 0.16406 0.79297 0.26562 0.17188 0.62109 0.10156 0.79297-0.16406l0.78516-1.1875c1.457 1.0078 2.7812 2.1641 3.9648 3.4336l-1.0625 0.94531c-0.23828 0.21094-0.25781 0.57031-0.050781 0.80859 0.21094 0.23828 0.57031 0.25781 0.80859 0.050781l1.0664-0.94531c1.1367 1.3438 2.1211 2.8008 2.9375 4.3438l-1.2695 0.63672c-0.28125 0.14062-0.39844 0.48438-0.25781 0.76953 0.14062 0.28125 0.48438 0.39844 0.76953 0.25781l1.2695-0.63672c0.74609 1.582 1.3242 3.2422 1.7188 4.957l-1.3945 0.28516c-0.30859 0.0625-0.51172 0.36719-0.44531 0.67578 0.0625 0.30859 0.36719 0.51172 0.67578 0.44531l1.3984-0.28516c0.3125 1.7109 0.44141 3.4609 0.37891 5.2305l-1.4258-0.085937c-0.31641-0.019532-0.58984 0.22266-0.60547 0.53906-0.019531 0.31641 0.22266 0.58984 0.53906 0.60547l1.4258 0.085937c-0.14453 1.7148-0.47266 3.4414-0.99609 5.1484l-1.3477-0.44922c-0.30078-0.097656-0.625 0.0625-0.72266 0.36328-0.097656 0.30078 0.0625 0.625 0.36328 0.72266l1.3477 0.44922c-0.60156 1.6836-1.375 3.2617-2.2891 4.7227l-1.1914-0.78516c-0.26562-0.17188-0.62109-0.10156-0.79297 0.16406-0.17187 0.26562-0.10156 0.62109 0.16406 0.79297l1.1914 0.78516c-1.0078 1.457-2.1641 2.7812-3.4375 3.9648l-0.94531-1.0664c-0.21094-0.23828-0.57031-0.25781-0.80859-0.050781-0.23828 0.21094-0.25781 0.57031-0.050781 0.80859l0.94531 1.0664c-1.3438 1.1367-2.8008 2.1172-4.3477 2.9375l-0.63672-1.2695c-0.14062-0.28125-0.48438-0.39844-0.76953-0.25781-0.28125 0.14062-0.39844 0.48438-0.25781 0.76953l0.63672 1.2695c-1.582 0.74609-3.2422 1.3242-4.957 1.7188l-0.28516-1.3906c-0.0625-0.30859-0.36719-0.51172-0.67578-0.44531-0.30859 0.0625-0.51172 0.36719-0.44531 0.67578l0.28516 1.3945c-1.7109 0.30859-3.4609 0.44141-5.2305 0.375l0.085938-1.4219c0.019531-0.31641-0.22266-0.58984-0.53906-0.60547-0.31641-0.019531-0.58984 0.22266-0.60547 0.53906l-0.085938 1.418c-1.7148-0.14453-3.4414-0.47266-5.1484-0.99609l0.44922-1.3438c0.097657-0.30078-0.0625-0.625-0.36328-0.72266s-0.625 0.0625-0.72266 0.36328l-0.44531 1.3438c-1.6836-0.60547-3.2617-1.375-4.7188-2.2891l0.78125-1.1836c0.17188-0.26562 0.10156-0.62109-0.16406-0.79297-0.26562-0.17187-0.62109-0.10156-0.79297 0.16406l-0.78125 1.1836c-1.4531-1.0078-2.7812-2.1641-3.9648-3.4375l1.0586-0.94141c0.23828-0.21094 0.25781-0.57031 0.050781-0.80859-0.21094-0.23828-0.57031-0.25781-0.80859-0.050781l-1.0586 0.94141c-1.1328-1.3438-2.1172-2.8008-2.9375-4.3438l1.2617-0.63281c0.28125-0.14062 0.39844-0.48438 0.25781-0.76953-0.14062-0.28125-0.48438-0.39844-0.76953-0.25781l-1.2617 0.63281c-0.74609-1.582-1.3242-3.2422-1.7188-4.9531l1.3828-0.28516c0.30859-0.0625 0.51172-0.36719 0.44531-0.67578-0.0625-0.30859-0.36719-0.51172-0.67578-0.44531l-1.3867 0.28516c-0.30859-1.707-0.44141-3.4609-0.375-5.2305l1.4141 0.082032c0.31641 0.019531 0.58984-0.22266 0.60547-0.53906 0.019532-0.31641-0.22266-0.58984-0.53906-0.60547l-1.4102-0.082031c0.14453-1.7148 0.47266-3.4375 0.99609-5.1484l1.3398 0.44531c0.30078 0.097656 0.625-0.0625 0.72266-0.36328 0.097656-0.30078-0.0625-0.625-0.36328-0.72266l-1.3398-0.44531c0.60156-1.6836 1.375-3.2617 2.2852-4.7188l1.1836 0.77734c0.26563 0.17188 0.62109 0.10156 0.79297-0.16406 0.17188-0.26563 0.10156-0.62109-0.16406-0.79297l-1.1797-0.77734c1.0078-1.457 2.1641-2.7812 3.4336-3.9648l0.9375 1.0547c0.21094 0.23828 0.57031 0.25781 0.80859 0.050781 0.23828-0.21094 0.25781-0.57031 0.050781-0.80859l-0.9375-1.0586zm-32.473 41.504c-0.17969 0-0.35938-0.007813-0.53516-0.023438v-5.1484l4.6445-3.7266c0.14062-0.11328 0.21484-0.28125 0.21484-0.44531v-3.0234c0-0.31641-0.25781-0.57422-0.57422-0.57422-0.31641 0-0.57422 0.25781-0.57422 0.57422v2.75l-3.7109 2.9766v-7.6211l4.6445-3.7266c0.14062-0.11328 0.21484-0.28125 0.21484-0.44531v-3.0234c0-0.31641-0.25781-0.57422-0.57422-0.57422-0.31641 0-0.57422 0.25781-0.57422 0.57422v2.75l-3.7109 2.9766v-7.9805l4.6445-3.7266c0.14062-0.11328 0.21484-0.28125 0.21484-0.44531v-3.0234c0-0.31641-0.25781-0.57422-0.57422-0.57422-0.31641 0-0.57422 0.25781-0.57422 0.57422v2.75l-3.7109 2.9766v-7.8164l4.6445-3.7266c0.14062-0.11328 0.21484-0.28125 0.21484-0.44531v-3.0234c0-0.31641-0.25781-0.57422-0.57422-0.57422-0.31641 0-0.57422 0.25781-0.57422 0.57422v2.75l-3.7109 2.9766v-7.8086l4.6445-3.7266c0.14062-0.11328 0.21484-0.28125 0.21484-0.44531v-2.4492h2.1484v48.906h-2.207c0.039063-0.078125 0.058594-0.16797 0.058594-0.25391v-3.0234c0-0.31641-0.25781-0.57422-0.57422-0.57422-0.31641 0-0.57422 0.25781-0.57422 0.57422v2.75l-0.65625 0.52734h-2.5156z" fill-rule="evenodd"/>
<text x="0.0" y="117.5" font-size="5.0" font-weight="bold" font-family="Arbeit Regular, Helvetica, Arial-Unicode, Arial, Sans-serif" fill="#000000">Created by Ar2ar</text><text x="0.0" y="122.5" font-size="5.0" font-weight="bold" font-family="Arbeit Regular, Helvetica, Arial-Unicode, Arial, Sans-serif" fill="#000000">from Noun Project</text></svg>