<svg xmlns="http://www.w3.org/2000/svg" data-name="Layer 1" viewBox="0 0 110 137.5" x="0px" y="0px"><path d="M91.27,104H18.73a1,1,0,0,1-1-1V90.54A23.35,23.35,0,0,1,41.06,67.23H44a1,1,0,0,1,.48.12c7.07,3.87,13.95,3.87,21,0a1,1,0,0,1,.48-.12h3A23.35,23.35,0,0,1,92.27,90.54V103A1,1,0,0,1,91.27,104Zm-71.54-2H90.27V90.54A21.35,21.35,0,0,0,68.94,69.23h-2.7a22.56,22.56,0,0,1-22.48,0h-2.7A21.35,21.35,0,0,0,19.73,90.54Z"/><path d="M30.7,104a1,1,0,0,1-1-1V88.44a1,1,0,0,1,2,0V103A1,1,0,0,1,30.7,104Z"/><path d="M79.3,104a1,1,0,0,1-1-1V88.44a1,1,0,0,1,2,0V103A1,1,0,0,1,79.3,104Z"/><path d="M55,85.25a4,4,0,0,1-3.46-2L43.14,68.73a1,1,0,0,1,1.35-1.38c7.07,3.87,13.95,3.87,21,0a1,1,0,0,1,1.35,1.38L58.49,83.25a4,4,0,0,1-3.46,2ZM46.49,70.51l6.8,11.74a2,2,0,0,0,1.73,1h0a2,2,0,0,0,1.74-1l6.76-11.74A22,22,0,0,1,46.49,70.51Z"/><path d="M55,72.23a23.73,23.73,0,0,1-11.47-3.12,1,1,0,1,1,1-1.76c7.07,3.87,13.95,3.87,21,0a1,1,0,0,1,1,1.76A23.73,23.73,0,0,1,55,72.23Z"/><path d="M55,72.23a23.76,23.76,0,0,1-11.47-3.12,1,1,0,0,1-.52-.88v-8.9a1,1,0,0,1,1.67-.74,15.32,15.32,0,0,0,20.64,0,1,1,0,0,1,1.67.74v8.9a1,1,0,0,1-.52.88A23.76,23.76,0,0,1,55,72.23Zm-10-4.6a20.32,20.32,0,0,0,20,0V61.41a17.28,17.28,0,0,1-20,0Z"/><path d="M55,64.59a18,18,0,0,1-12.12-4.7,18.63,18.63,0,0,1-2.15-2.31,14.42,14.42,0,0,1-3.3-9.15V32.31c.18-3.18,1.1-5.25,2.8-6.39,3-2.05,7.92-.63,14,1.46,2.83.45,4.87.19,5.93-.74A3.18,3.18,0,0,0,61.07,24a2.51,2.51,0,0,1,1-2.13,2.61,2.61,0,0,1,2.43-.34,11.61,11.61,0,0,1,6.08,5.38,15.61,15.61,0,0,1,1.94,7.75V48.43a14.37,14.37,0,0,1-3.25,9.09,19.11,19.11,0,0,1-2.2,2.37A18,18,0,0,1,55,64.59ZM44,26.92a4.63,4.63,0,0,0-2.63.66c-1.15.77-1.78,2.34-1.92,4.79V48.43a12.34,12.34,0,0,0,2.8,7.82l.08.1a16.89,16.89,0,0,0,1.92,2.07,16,16,0,0,0,21.55,0,16.78,16.78,0,0,0,1.91-2.06l.08-.1a12.34,12.34,0,0,0,2.8-7.82V34.67a13.58,13.58,0,0,0-1.68-6.76,9.63,9.63,0,0,0-5-4.49.61.61,0,0,0-.57.08.52.52,0,0,0-.22.44,5.13,5.13,0,0,1-1.6,4.2c-1.56,1.37-4.13,1.78-7.66,1.2l-.17,0C49.88,28,46.47,26.92,44,26.92Z"/><path d="M74.11,49.63H71.57a1,1,0,0,1-1-1V35.41a1,1,0,0,1,1-1h2.54a3.5,3.5,0,0,1,2.54,1.08.69.69,0,0,1,.13.11,3.55,3.55,0,0,1,1,2.43v8A3.61,3.61,0,0,1,74.11,49.63Zm-1.54-2h1.54A1.61,1.61,0,0,0,75.73,46V38a1.54,1.54,0,0,0-.32-1,.86.86,0,0,1-.14-.13,1.51,1.51,0,0,0-1.16-.53H72.57Z"/><path d="M38.43,49.63H35.89A3.61,3.61,0,0,1,32.27,46V38a3.55,3.55,0,0,1,.95-2.43l.13-.12a3.55,3.55,0,0,1,2.54-1.07h2.54a1,1,0,0,1,1,1V48.63A1,1,0,0,1,38.43,49.63ZM34.59,37.08a1.51,1.51,0,0,0-.32,1v8a1.61,1.61,0,0,0,1.62,1.6h1.54V36.41H35.89a1.51,1.51,0,0,0-1.16.53A.93.93,0,0,1,34.59,37.08Z"/><path d="M76.05,37.29h0a1,1,0,0,1-.76-.35,1.51,1.51,0,0,0-1.16-.53H71.57a1,1,0,0,1-1-1v-.86a13.27,13.27,0,0,0-1.68-6.63,9.65,9.65,0,0,0-5-4.5.59.59,0,0,0-.56.08.51.51,0,0,0-.23.44,5.13,5.13,0,0,1-1.6,4.2c-1.56,1.37-4.13,1.77-7.66,1.2l-.17,0c-5.37-1.85-10-3.25-12.29-1.72-1.15.77-1.78,2.34-1.92,4.79v3a1,1,0,0,1-1,1H35.89a1.51,1.51,0,0,0-1.16.53A1.06,1.06,0,0,1,33,36.59a24.6,24.6,0,0,1,3.08-21.38C38.94,11.16,44.56,6.27,55,6c10.47.27,16.09,5.16,19,9.21A24.6,24.6,0,0,1,77,36.59,1,1,0,0,1,76.05,37.29Zm0-1h0Zm-3.48-1.88h1.54a3.52,3.52,0,0,1,1.37.27A22.57,22.57,0,0,0,72.3,16.36C69.69,12.69,64.56,8.25,55,8c-9.53.25-14.66,4.69-17.27,8.36a22.57,22.57,0,0,0-3.18,18.32,3.52,3.52,0,0,1,1.37-.27h1.54v-2.1c.18-3.18,1.1-5.25,2.8-6.39,3-2,7.92-.62,14,1.46,2.83.45,4.88.19,5.93-.74A3.15,3.15,0,0,0,61.07,24a2.55,2.55,0,0,1,1-2.13,2.61,2.61,0,0,1,2.43-.34,11.66,11.66,0,0,1,6.08,5.38A15.26,15.26,0,0,1,72.57,34.41Z"/><path d="M92.92,104H17.08a8.27,8.27,0,0,1-8.26-8.27V14.27A8.27,8.27,0,0,1,17.08,6H92.92a8.27,8.27,0,0,1,8.26,8.27V95.73A8.27,8.27,0,0,1,92.92,104ZM17.08,8a6.27,6.27,0,0,0-6.26,6.27V95.73A6.27,6.27,0,0,0,17.08,102H92.92a6.27,6.27,0,0,0,6.26-6.27V14.27A6.27,6.27,0,0,0,92.92,8Z"/></svg>