<svg xmlns="http://www.w3.org/2000/svg" xmlns:xlink="http://www.w3.org/1999/xlink" version="1.1" x="0px" y="0px" viewBox="0 0 492 615" style="enable-background:new 0 0 492 492;" xml:space="preserve"><g><g><path d="M189.5,125.5H303c-1.3-4.5-3.8-8.5-7-11.8c-5-5-11.9-8.1-19.5-8.1h-6.5c-4.2,0-7.7-3.4-7.7-7.7v-3.8    c0-4.5-1.8-8.5-4.8-11.5c-3-3-7-4.8-11.5-4.8h0c-4.5,0-8.5,1.8-11.5,4.8c-3,3-4.8,7-4.8,11.5v3.8c0,4.2-3.4,7.7-7.7,7.7H216    c-7.6,0-14.5,3.1-19.5,8.1C193.3,116.9,190.8,121,189.5,125.5L189.5,125.5z M311.8,140.8H180.7c-4.2,0-7.7-3.4-7.7-7.7    c0-11.8,4.8-22.6,12.6-30.3c7.5-7.5,17.8-12.3,29.1-12.6c0.9-7.2,4.2-13.7,9.1-18.5c5.7-5.7,13.6-9.3,22.4-9.3h0    c8.7,0,16.6,3.6,22.4,9.3c4.9,4.9,8.2,11.3,9.1,18.5c11.4,0.3,21.8,5,29.3,12.6c7.8,7.8,12.6,18.5,12.6,30.3    C319.5,137.4,316,140.8,311.8,140.8z"/><path d="M306.4,106.9c-4.2,0-7.7,3.4-7.7,7.7c0,4.2,3.4,7.7,7.7,7.7h46.1c2.1,0,4,0.9,5.4,2.3c1.4,1.4,2.3,3.3,2.3,5.4V408    c0,2.1-0.9,4-2.3,5.4s-3.3,2.3-5.4,2.3H140c-2.1,0-4-0.9-5.4-2.3s-2.3-3.3-2.3-5.4V129.9c0-2.1,0.9-4,2.3-5.4    c1.4-1.4,3.3-2.3,5.4-2.3h46.1c4.2,0,7.7-3.4,7.7-7.7s-3.4-7.7-7.7-7.7H140c-6.3,0-12.1,2.6-16.3,6.8c-4.2,4.2-6.8,9.9-6.8,16.3    V408c0,6.3,2.6,12.1,6.8,16.3c4.2,4.2,9.9,6.8,16.3,6.8h212.6c6.3,0,12.1-2.6,16.3-6.8c4.2-4.2,6.8-9.9,6.8-16.3V129.9    c0-6.3-2.6-12.1-6.8-16.3s-9.9-6.8-16.3-6.8H306.4z"/><path d="M164.5,167.2h42.8c2.1,0,3.8,1.7,3.8,3.8v42.8c0,2.1-1.7,3.8-3.8,3.8h-42.8c-2.1,0-3.8-1.7-3.8-3.8v-42.8    C160.7,169,162.4,167.2,164.5,167.2L164.5,167.2z M203.4,174.9h-35.1V210h35.1V174.9z"/><path d="M176.1,189.7c-1.5-1.5-3.9-1.5-5.4,0s-1.5,3.9,0,5.4l8.3,8.3c1.5,1.5,3.9,1.5,5.4,0s1.5-3.9,0-5.4L176.1,189.7z"/><path d="M179,198.1c-1.5,1.5-1.5,3.9,0,5.4s3.9,1.5,5.4,0l16.6-16.6c1.5-1.5,1.5-3.9,0-5.4s-3.9-1.5-5.4,0L179,198.1z"/><path d="M164.5,243.7h42.8c2.1,0,3.8,1.7,3.8,3.8v42.8c0,2.1-1.7,3.8-3.8,3.8h-42.8c-2.1,0-3.8-1.7-3.8-3.8v-42.8    C160.7,245.5,162.4,243.7,164.5,243.7L164.5,243.7z M203.4,251.4h-35.1v35.1h35.1V251.4z"/><path d="M176.1,266.2c-1.5-1.5-3.9-1.5-5.4,0s-1.5,3.9,0,5.4l8.3,8.3c1.5,1.5,3.9,1.5,5.4,0s1.5-3.9,0-5.4L176.1,266.2z"/><path d="M179,274.6c-1.5,1.5-1.5,3.9,0,5.4s3.9,1.5,5.4,0l16.6-16.6c1.5-1.5,1.5-3.9,0-5.4s-3.9-1.5-5.4,0L179,274.6z"/><path d="M164.5,320.2h42.8c2.1,0,3.8,1.7,3.8,3.8v42.8c0,2.1-1.7,3.8-3.8,3.8h-42.8c-2.1,0-3.8-1.7-3.8-3.8v-42.8    C160.7,322,162.4,320.2,164.5,320.2L164.5,320.2z M203.4,327.9h-35.1V363h35.1V327.9z"/><path d="M176.1,342.7c-1.5-1.5-3.9-1.5-5.4,0s-1.5,3.9,0,5.4l8.3,8.3c1.5,1.5,3.9,1.5,5.4,0s1.5-3.9,0-5.4L176.1,342.7z"/><path d="M179,351.1c-1.5,1.5-1.5,3.9,0,5.4s3.9,1.5,5.4,0l16.6-16.6c1.5-1.5,1.5-3.9,0-5.4s-3.9-1.5-5.4,0L179,351.1z"/><path d="M223,188.6c-2.1,0-3.8,1.7-3.8,3.8s1.7,3.8,3.8,3.8h105c2.1,0,3.8-1.7,3.8-3.8s-1.7-3.8-3.8-3.8H223z"/><path d="M223,265.1c-2.1,0-3.8,1.7-3.8,3.8c0,2.1,1.7,3.8,3.8,3.8h105c2.1,0,3.8-1.7,3.8-3.8c0-2.1-1.7-3.8-3.8-3.8H223z"/><path d="M223,341.6c-2.1,0-3.8,1.7-3.8,3.8c0,2.1,1.7,3.8,3.8,3.8h105c2.1,0,3.8-1.7,3.8-3.8c0-2.1-1.7-3.8-3.8-3.8H223z"/></g></g><text x="0" y="507" fill="#000000" font-size="5px" font-weight="bold" font-family="'Helvetica Neue', Helvetica, Arial-Unicode, Arial, Sans-serif">Created by Iconbunny</text><text x="0" y="512" fill="#000000" font-size="5px" font-weight="bold" font-family="'Helvetica Neue', Helvetica, Arial-Unicode, Arial, Sans-serif">from the Noun Project</text></svg>