<svg xmlns="http://www.w3.org/2000/svg" xmlns:xlink="http://www.w3.org/1999/xlink" version="1.1" x="0px" y="0px" viewBox="0 0 100 125" style="enable-background:new 0 0 100 100;" xml:space="preserve"><style type="text/css">
	.st0{fill:none;stroke:#000000;stroke-miterlimit:10;}
	.st1{fill:none;stroke:#FFFFFF;stroke-linecap:round;stroke-linejoin:round;stroke-miterlimit:10;}
	.st2{fill:none;stroke:#000000;stroke-linecap:round;stroke-linejoin:round;stroke-miterlimit:10;}
</style><g><g><path d="M44.025383,58.4295998c-0.4986992-1.9603004-2.0205002-6.7961998-2.6801987-7.9995003    c-0.6705017-1.222599-1.3608017-2.1246986-4.1534996-2.5952988c-2.9309998-0.4932022-13.4078007-1.707901-13.5135002-1.7203026    c-0.031601-0.0048981-2.7117004-0.3213997-3.0505009,1.3233032c-0.1505985,0.733799-0.3013992,1.9121971-0.2959995,3.5425987    c0.0380001-0.9939003,0.3684006-1.7556992,1.0060997-2.2484016c1.1781006-0.9089966,2.9260006-0.5450974,3.4365997-0.4123001    c6.1267014,1.2863007,10.4294014,4.0775032,11.6016159,4.9026031c1.1622849,0.8176994,1.8230019,3.5373993,2.0540009,4.6685982    c0.362484,1.7804985-0.9993172,4.713501-2.5508156,7.8172989c-1.262001,2.5227051-2.9743996,4.6912994-4.6987,5.9488983    c-0.5214005,0.3807068-1.0853004,0.5373001-1.6431999,0.5373001c-1.2858009,0-2.5429001-0.8330002-3.1917-1.6704941    c-4.7709007-7.3828011-5.7667007-15.3538017-5.9741001-18.2386017c0.0858002,1.6597977,0.3239002,3.6783981,0.8516998,6.1329002    c1.0834007,5.0403976,2.5972004,9.4729958,6.4584999,14.7182961c0.0662003,0.0839005,1.3894997,1.7217026,3.0594006,1.7751007    c1.4220009,0.0474014,1.713398-0.2173004,3.228199-1.6828003c0.3003006-0.2902985,0.6439018-0.6225967,1.0488014-1.0013962    c2.3582001-2.2090988,6.5917969-6.7626038,7.9871979-8.7303009C44.1971855,61.8193016,44.5013847,60.3039017,44.025383,58.4295998    z"/><path d="M66.3426819,72.5058975c-0.7869949-1.8046951-2.2516022-5.164299-3.8652-6.0298996    c-0.6133003-0.3287964-2.1527977-0.4566956-3.8612976-0.4566956c-2.2603989,0-4.8190994,0.2236938-5.9321022,0.5017014    c-1.6738968,0.4186935-3.0128975,3.4691925-3.8977966,5.4876938l-0.0859032,0.1955032    c-0.9302979,2.1163025-3.4573822,6.9937973-4.1584969,8.2463989l-0.299202,0.5289001    c-0.4622002,0.8126984-1.2354012,2.1725006-1.2354012,2.5621033c0,1.1026001,0.3466034,1.6373978,1.4832001,2.2876968    c0.2124023,0.120903,1.0557022,0.482399,4.3077011,1.2201004c2.6989021,0.6121979,5.4018173,0.8532028,8.0354996,0.7148972    c4.9989014-0.2612,8.6074028-1.7789993,10.7642021-2.6856003c2.7669983-1.1637955,2.3661118-2.7443008,2.1271133-3.6888962    C69.4445801,80.285202,67.4536819,75.0571976,66.3426819,72.5058975z M67.1880035,81.7689972    c-0.3041229,0.9984055-3.2193184,3.3902054-9.9030037,3.9921036c-1.3312149,0.1200027-2.5843163,0.169899-3.7437172,0.1704025    c-4.5356979,0-7.6642838-0.767807-8.6428986-1.1421051c-0.6033859-0.2305984-1.0251007-0.7471008-1.1583824-1.4180984    c-0.1363182-0.6912994,0.0602837-1.4284973,0.4917831-1.8348999l0.0820007-0.0770035    c0.5243988-0.4937973,1.1780968-1.1079941,2.8153992-3.6523972c2.3237-3.6222992,5.8048134-7.347702,5.9163971-7.4662018    c0.5559006-0.6048965,1.5445023-0.8512955,3.4099007-0.8512955c2.0363007,0,2.7069016,0.4976959,3.7171021,1.3780975    c2.6012001,2.1774979,5.6288986,6.569603,6.2382965,7.539299C67.1593857,79.5973969,67.4566803,80.8856964,67.1880035,81.7689972z    "/><path d="M64.6824799,77.6565018c-0.996479,0.8988953-3.6131973,3.1344986-6.6903954,4.7578964    c-1.2854996,0.6785049-2.3949013,1.1906052-3.3286018,1.5880051c4.5688019-0.369606,8.2596016-1.4984055,9.6785202-2.227005    c1.5673828-0.8039017,1.6582794-1.4817963,1.6523819-1.9574966c-0.1110001-0.2793045-0.2492981-0.5698013-0.4397049-0.8728027    C65.4027863,78.703598,65.0954819,78.2419968,64.6824799,77.6565018z"/><path d="M56.8507843,84.7799988c0.1153984-0.0093994,0.2266006-0.0157013,0.343399-0.0261993    c3.7773018-0.3401031,6.2112999-1.2679977,7.5940018-2.0712967    C63.5193825,83.3295975,60.5773849,84.2718964,56.8507843,84.7799988z"/><path d="M48.4347839,44.7230988c-0.0455017-0.0043983-0.089901-0.006897-0.1343002-0.006897    c-0.8769989,0-1.655201,0.8551979-1.7677002,1.9774971c-0.1166,1.1791,0.5441017,2.2145996,1.4743996,2.3073997    c0.4324989,0.0454025,0.8670006-0.1253967,1.2215004-0.4754982c0.3801994-0.3753014,0.6212006-0.9056015,0.6804008-1.4940987    v-0.0005035c0.0583-0.5885963-0.0730019-1.1568985-0.3712997-1.5998001    C49.259285,45.0178986,48.8672829,44.7666016,48.4347839,44.7230988z"/><path d="M16.2114849,50c0-18.6623993,10.9440002-34.6030998,26.2348003-40.668499    c-0.8122025-0.0633001-1.6272011-0.1004-2.4402008-0.1004C20.7037849,9.2311001,5,27.0214996,5,48.8885002    C5,69.9337006,19.5468845,87.194603,37.8463821,88.4636002C25.0107841,81.2609024,16.2114849,66.7287979,16.2114849,50z"/><path d="M63.5854836,47.9756012c0.3555183,0.3850975,0.8473015,0.6042976,1.3836021,0.6166992    c0.5341949,0.0009995,1.0654984-0.1891022,1.4742966-0.5643997c0.8365021-0.771801,0.9155045-2.0516014,0.1768036-2.8530006    c-0.3791885-0.4098015-0.8996048-0.6156998-1.4299011-0.6156998c-0.5056992,0-1.0202026,0.1870995-1.4290009,0.5639    c-0.4069023,0.3761978-0.6487999,0.8818016-0.6804008,1.4239998c-0.0306015,0.5351982,0.1491165,1.0428009,0.5046005,1.4280014    V47.9756012z"/><path d="M55.8708839,41.9762993c0.4375,0.1781998,0.9322014,0.149601,1.3933983-0.0809975    c0.483902-0.2410011,0.8710022-0.670002,1.0902023-1.2082024v-0.0004997c0.2192993-0.5382996,0.243-1.1155014,0.0652008-1.6259995    c-0.1688004-0.4874001-0.5036011-0.8536987-0.9401016-1.0320015c-0.1895828-0.0769997-0.3890991-0.1149979-0.5924988-0.1149979    c-0.2667007,0-0.5391998,0.0655975-0.8008995,0.1959991c-0.483902,0.2408981-0.8710022,0.6705017-1.0903015,1.2086983    c-0.2192001,0.5387001-0.2428856,1.1159019-0.0651016,1.626503    C55.0995827,41.4317017,55.4343834,41.7980003,55.8708839,41.9762993z"/><path d="M51.8683853,49.6934013c0,2.7156982,2.0194969,4.9252968,4.5011978,4.9252968s4.5012016-2.2095985,4.5012016-4.9252968    c0-2.7158012-2.0195007-4.9249001-4.5012016-4.9249001S51.8683853,46.9776001,51.8683853,49.6934013z"/><path d="M52.5438843,55.9692001c-0.3238831-0.2720985-0.6991997-0.4152985-1.0783997-0.4152985    c-0.0779991,0-0.1570015,0.0063972-0.2360001,0.0187988c-0.969799,0.1554985-1.6077003,1.2280006-1.4221001,2.3903008    c0.0918999,0.5766983,0.3694,1.0847969,0.7821999,1.4309006c0.3919983,0.3288994,0.8562012,0.4670982,1.314415,0.3964996    c0.4571838-0.073101,0.8561859-0.3525009,1.1257858-0.7865028c0.2833977-0.457798,0.3889999-1.0270996,0.2962151-1.6037979    C53.2341843,56.8233986,52.9566841,56.3153,52.5438843,55.9692001z"/><path d="M60.6406822,58.7896004c0.8404007,0.8403015,2.1489029,0.8960991,2.9162025,0.1297989    c0.7682953-0.7687988,0.7099991-2.0767975-0.1294022-2.9161987c-0.4444008-0.4444008-1.0200996-0.6695023-1.5780983-0.6695023    c-0.4957008,0-0.9766006,0.1782036-1.3381004,0.5397034C59.743,56.6417007,59.8012848,57.9496994,60.6406822,58.7896004z"/><path d="M27.804184,32.3320007c1.4822998,0.655201,3.4631996,1.6813011,5.7563019,2.8693008    c2.049099,1.0615997,4.3708,2.2649002,6.6648979,3.3659973c2.0401993,1.0032997,3.5699005,1.174202,4.5545006,0.5076027    c1.341114-0.9090004,6.1335983-4.8068008,6.8841171-5.5569c0.6043816-0.6048012,1.2146835-1.8412018,1.2146835-3.2386017    c0-1.3164005-0.957901-7.8439999-2.2131004-12.1758003c-0.3535004-1.7157993-0.911499-3.6661997-1.2472992-4.0276995    c-0.4029007-0.4320002-1.3716011-1.2876997-2.7236023-1.2876997c-0.3169975,0-0.6546822,0.0468998-1.0112,0.1574993    l-0.0384827,0.0104008c-0.0583153,0.0132999-5.9608154,1.3967991-11.1749992,6.0194988    c-5.2487164,4.6528015-8.3456173,10.335001-8.3762169,10.3917999C26.0551834,29.4993,25.5051842,31.3167992,27.804184,32.3320007z     M27.4960003,27.1154003c6.4258823-7.7828007,10.8668842-10.2066994,15.5576839-11.4514999    c1.3292007-0.3540001,2.4293175-0.1926003,3.264801,0.4769993c1.2136002,0.9727001,1.7677002,2.9496994,1.6491966,5.8763008    c-0.3248978,8.0903988-1.4773979,9.5627995-2.0313988,10.270401c-0.342701,0.4452972-0.7030983,0.6655998-1.0517006,0.8788986    c-0.2943001,0.1796989-0.5727997,0.3496017-0.7999001,0.6152c-0.592598,0.6912994-1.8042984,1.1306992-2.6259003,1.1306992    c-0.0986977,0-0.1925964-0.0064011-0.2794991-0.0196991c-3.6389999-0.2410011-8.7248001-1.9794998-11.457283-2.9137001    c-0.4642162-0.1585007-0.8612156-0.2943001-1.1742153-0.3959999c-1.0409012-0.3393002-1.6669998-1.1095009-1.7617855-2.1697006    C26.7118835,28.5883007,26.9706841,27.7507992,27.4960003,27.1154003z"/><path d="M72.5473862,50.8039017c-1.2157059,3.4133987-2.4125061,7.7229996-2.1647034,9.1208    c0.3111038,1.7572975,0.8562012,2.4021988,2.0589981,3.6928978l0.3309021,0.3549995    c1.4990005,1.6082039,5.0106964,5.3742027,6.330101,7.1113014c1.4545975,1.9162979,1.798317,2.1473999,2.6040955,1.7741013    c0.9964066-0.4597015,2.6318054-2.1287003,3.8306046-4.4286041c1.117897-2.1458969,3.5462952-9.0472984,3.9669952-12.0592995    c0.5510025-3.9515991,0.5589066-7.4361,0.5589066-7.4815979c-0.0009995-1.040802-0.2567062-2.9082985-0.936203-3.4903984    c-0.1391983-0.1185036-0.2834015-0.1748009-0.4552002-0.1748009c-0.0445023,0-0.0918808,0.0033989-0.1402969,0.0112991    c-2.0401993,0.3170013-10.8983994,2.017601-12.548584,2.5331001    C74.3476868,48.2787018,73.2020798,48.9650993,72.5473862,50.8039017z M86.0607834,46.8409004    c0.2173004-0.0741005,0.4453964-0.0410004,0.637001,0.091301c0.5578995,0.384697,0.7326965,1.7745972,0.780098,2.8751984    c0.0109024,0.1609993,0.1224976,2.1790009-0.5708008,5.9948997c-1.4615021,8.1204987-4.6324997,13.004303-5.2536011,13.901001    c-0.4848938,0.7012024-1.0210953,1.0873032-1.5484772,1.1164017c-0.0207214,0.0009995-0.0415192,0.0014954-0.0612183,0.0014954    c-0.299202,0-0.5679016-0.1214981-0.7634048-0.3460999c-3.8424988-5.9169006-6.4366989-11.5423965-6.5828934-12.652298    c-0.1392059-1.0597,0.6705093-3.6044998,1.6056976-5.0424004C75.400383,51.0917015,85.960083,46.8745003,86.0607834,46.8409004z"/><path d="M56.1108818,7.7266002C34.6674843,7.7266002,17.2226849,26.6902008,17.2226849,50    s17.4447994,42.2733994,38.8881989,42.2733994C77.554184,92.2733994,95,73.3097992,95,50    S77.554184,7.7266002,56.1108818,7.7266002z M55.6348839,37.2044983c0.7248001-0.3603973,1.5158005-0.4013977,2.2258987-0.1120987    c0.7099991,0.289402,1.2482185,0.8704987,1.5139008,1.6364021c0.2587013,0.7425995,0.2290993,1.573597-0.0839996,2.3393974    c-0.3120003,0.7663994-0.8709984,1.3815994-1.5750999,1.7322006c-0.0725822,0.0360985-0.1483994,0.0517998-0.2220993,0.0816002    c1.9895973,0.3772011,3.6665993,1.7307014,4.5812988,3.5863991c0.0514984-0.7972984,0.4051018-1.5383987,1.0012169-2.0884972    c1.2471809-1.1504021,3.1698799-1.0996017,4.2867851,0.1091995c1.1168976,1.2111969,1.0122986,3.131897-0.2340012,4.2818985    c-0.5836029,0.5387001-1.3311996,0.8330002-2.1122971,0.8330002c-0.0228043,0-0.0464859-0.0004997-0.0702057-0.0009995    c-0.8136978-0.0182991-1.5602798-0.3530006-2.1033974-0.9421005c-0.0474014-0.0512009-0.080883-0.1108017-0.1240997-0.1646996    c0.0636978,0.389698,0.1033974,0.7882004,0.1033974,1.1972008c0,1.8398972-0.6767998,3.5099983-1.771698,4.751297    c1.0419006-0.2884979,2.2361984-0.0108986,3.0920029,0.8436012c1.2333984,1.2334023,1.2916946,3.1828003,0.1293945,4.3460999    c-0.5579987,0.5583992-1.2986984,0.8349991-2.0530968,0.8349991c-0.8176994,0-1.6511993-0.3234978-2.2931023-0.9648972    c-1.0138969-1.0147018-1.219799-2.5066032-0.6203995-3.6532021c-0.8819008,0.4860001-1.8779984,0.7657013-2.9356995,0.7657013    c-0.8610992,0-1.6818008-0.1852989-2.4334984-0.5152016c0.1907997,0.3460999,0.3237991,0.7310028,0.3892975,1.1383018    c0.1304016,0.8167-0.0247002,1.6324005-0.4364967,2.2964973c-0.425602,0.6874008-1.0744019,1.1322021-1.8250008,1.2522011    c-0.1343002,0.0213013-0.267601,0.0321007-0.4008865,0.0321007c-0.6142159,0-1.2147141-0.2251015-1.7232132-0.6523018    c-0.5995026-0.5025978-1.0004005-1.2288971-1.1317863-2.0460968c-0.2735138-1.7129021,0.7406845-3.3043022,2.2614861-3.5482025    c0.2455978-0.0389977,0.4902-0.0285988,0.7320976,0.0037994c-1.1637993-1.2529984-1.8845825-2.9800987-1.8845825-4.884697    c0-0.1512032,0.0122833-0.2991028,0.0212822-0.4479027c-0.5105972,0.504303-1.1403999,0.7737999-1.7938995,0.7737999    c-0.0789986,0-0.1579971-0.0039978-0.237999-0.011898c-1.4841995-0.1486015-2.5517998-1.6798019-2.3788986-3.4139023    c0.1737976-1.7346001,1.5197983-3.0282974,3.0079994-2.8766975c0.7376976,0.0736008,1.3913994,0.4818993,1.8408012,1.149498    c0.2460976,0.3656006,0.4040985,0.7889023,0.4870987,1.2360001c0.9714012-1.7084999,2.6092987-2.9284973,4.5261993-3.2439995    c-0.6577988-0.301899-1.161499-0.8542976-1.4137993-1.5816994c-0.2587013-0.7425995-0.2290993-1.5736008,0.0839996-2.3400002    C54.3717842,38.1707993,54.9307823,37.5555992,55.6348839,37.2044983z M25.1723843,28.9566002    c0.1590004-0.3071003,3.2381001-5.9612007,8.6261005-10.7374992c5.3178978-4.7144012,11.1541977-6.1404009,11.6035156-6.245101    c2.4184837-0.7371998,4.1308823,0.7416,4.757,1.4131002c0.6951828,0.7480993,1.3607826,3.8582993,1.4881821,4.4741001    c1.2226028,4.2157993,2.2427025,10.8361988,2.2427025,12.4181995c0,1.4832993-0.5925026,3.035202-1.5108833,3.9536018    c-0.7999191,0.7999001-5.631916,4.7297974-7.0323181,5.6792984c-0.5698013,0.3866005-1.232399,0.5802002-1.9948006,0.5802002    c-1.0083008,0-2.1912994-0.3381996-3.568882-1.0157013c-2.3030014-1.1054993-4.632618-2.3127975-6.6876183-3.3773003    c-2.2782993-1.1805992-4.2463818-2.2002983-5.700098-2.8421974C24.8237839,32.1212006,24.816885,29.9475994,25.1723843,28.9566002    z M35.7093849,72.9651031c-0.4000015,0.374794-0.7397003,0.703598-1.0368996,0.9909973    c-1.4873009,1.4374008-2.0382996,1.9705963-3.6874847,1.9705963c-0.0889168,0-0.1807156-0.0013962-0.2755165-0.0048981    c-2.1884003-0.0690994-3.7654839-2.0847015-3.8316002-2.1706009l-0.0060005-0.0088959    c-3.9717999-5.3934021-5.5261993-9.9415016-6.6381989-15.111702c-1.3075008-6.0812988-0.9342003-9.7504997-0.5955009-11.3961983    c0.5264015-2.5602036,4.018301-2.1415024,4.1625004-2.123703c0.0997009,0.0119019,10.6032009,1.2290001,13.5589008,1.7266998    c3.2291985,0.5442009,4.1170006,1.7292023,4.8724136,3.1068001c0.7752838,1.4137001,2.3256836,6.4771996,2.7730026,8.2364998    c0.5500832,2.1627007,0.1876831,3.9828033-1.1751175,5.9015999    C42.4028854,66.0939026,38.1001854,70.7254028,35.7093849,72.9651031z M67.988884,86.0110016    c-2.2160034,0.9321976-5.9271011,2.4925003-11.101799,2.7635956c-0.4976997,0.0257034-0.9984016,0.0390015-1.5000839,0.0390015    c-2.2466164,0-4.5318184-0.2606964-6.8120003-0.7777023c-2.4886169-0.5648956-4.0321159-1.0116959-4.5861168-1.3286972    c-1.1958847-0.6844025-1.9928856-1.4842987-1.9928856-3.165596c0-0.6113052,0.5411873-1.6091995,1.3677864-3.0618057    l0.2952156-0.5233994c0.6942825-1.2403946,3.196682-6.0679016,4.1150818-8.1589966l0.0859184-0.1950989    c1.0230827-2.3310013,2.4233818-5.5237045,4.5791817-6.0620041c1.9919014-0.4995956,8.7308159-0.9133987,10.5163002,0.0449982    c1.7745972,0.951004,3.1571045,3.8627014,4.3135147,6.5167007c1.1514893,2.6407013,3.1413879,7.8766022,3.4346848,9.0360031    C70.9386826,82.0627975,71.5588837,84.509903,67.988884,86.0110016z M89.7847824,44.6307983    c1.2532196,1.0734024,1.2897034,3.934803,1.2897034,4.2577019c0,0.0355988-0.0069046,3.5906982-0.5688019,7.6212997    c-0.4403992,3.1596985-2.8964005,10.1311989-4.0716019,12.3866997c-1.1691971,2.2432022-2.9378967,4.2498016-4.3026962,4.8798981    c-0.365387,0.1684036-0.6921997,0.245903-0.9933853,0.245903c-1.0745163,0-1.8219986-0.9856033-2.841217-2.3271027    c-1.2876968-1.6960983-4.774704-5.4358978-6.2639008-7.0327988L71.7010803,64.3069    c-1.2728958-1.3671989-1.9542999-2.1749992-2.313797-4.2053986c-0.3871002-2.1874008,1.7715988-8.4113007,2.2080994-9.6369019    c0.8394012-2.3586998,2.4599991-3.1542015,4.0855026-3.6617012c1.7281113-0.5401993,10.5833969-2.2392998,12.6946945-2.5676003    C88.9020004,44.1548004,89.3887863,44.2905998,89.7847824,44.6307983z M84.6140823,32.8855019    c-0.6458969,0.615799-6.506897,4.4201965-8.9944992,5.8911972c-1.922699,1.1371002-3.1137009,1.6245003-4.3628998,1.6245003    c-0.6092987,0-1.2314987-0.1156006-1.9602966-0.3283997c-2.3029022-0.6730003-6.1967049-4.4428978-7.7640038-6.0323982    c-1.5937996-1.6175003-1.2462006-3.861702-0.8442993-6.4594021c0.0997009-0.6403999,0.2024002-1.3050003,0.2794991-1.9888992    c0.2982025-2.6466007,0.632-7.0480995,0.831501-9.6774006L61.9303818,14.2093    c0.0425034-0.5457001,0.2913017-1.0123005,0.7170029-1.349c1.217617-0.9618998,3.5502014-0.6315002,3.813797-0.5915003    l0.0188217,0.0033998c0.1865768,0.0365,4.6334763,0.9485006,10.40168,5.6758995    c4.7697983,3.9101009,7.5970993,7.3852005,8.6448975,10.6244011    C86.3797836,31.2087002,85.186882,32.3409004,84.6140823,32.8855019z"/><path d="M76.2397842,18.7301998c-5.4542007-4.4706001-9.7253036-5.4175997-9.9455032-5.4639997    c-0.228096-0.0341005-0.6121979-0.0702-1.0397949-0.0702c-0.7022018,0-1.5248032,0.0967999-1.9810028,0.4582996    c-0.2074013,0.1644001-0.3140984,0.3657999-0.3358002,0.6349001l-0.1304016,1.7016001    c-0.199398,2.6367006-0.5341988,7.0495005-0.8343964,9.7148008c-0.0790024,0.6981983-0.1837006,1.3766994-0.2854004,2.0298996    c-0.3753014,2.4244003-0.6714859,4.3392982,0.5657997,5.5948982c1.1791992,1.1963997,5.1935005,5.1485023,7.3274956,5.7717018    c1.925705,0.5633011,2.9083023,0.3509979,5.5233002-1.1954994c2.722702-1.6100998,8.3062057-5.2709007,8.7703018-5.7127991    c0.5313034-0.5047016,1.3470001-1.2799015,0.6903-3.3103027C83.578186,25.8344994,80.855484,22.5133991,76.2397842,18.7301998z     M77.7496796,33.1734009c-2.3917999,0.9045982-6.5681,1.5419998-8.3850937,1.5424995    c-0.2439041,0-0.4444046-0.0117989-0.5935059-0.0354996c-1.3864975-0.2217026-3.8563995-2.553299-4.2593002-3.4396    c-0.4354935-0.9574013-1.0555954-7.4016018-1.0555954-10.1751003c0-2.0936012-0.2884026-3.3082008-0.4434013-3.9610004    c-0.0720978-0.3066006-0.1204987-0.5095997-0.1204987-0.6931992c0-0.6010008,0.2468987-0.9417009,0.4531975-1.1219006    c0.4069023-0.3550005,0.9292984-0.3387003,1.0893021-0.3239002c1.4092178,0.0073996,7.2435989,3.2054996,10.2130966,5.6382999    c3.2440033,2.6585007,6.8594055,7.5265007,7.0904999,9.0844002    C81.9960861,31.4249992,80.2481842,32.2282982,77.7496796,33.1734009z"/><path d="M74.0070038,21.3862c-3.3201218-2.7201996-8.750618-5.4157-9.5228195-5.4172001L64.3873825,15.9937l-0.0483856-0.0212002    c-0.01091-0.0009995-0.0257111-0.0019999-0.042511-0.0019999c-0.0799026,0-0.2123032,0.0148001-0.289299,0.0840006    c-0.0859032,0.0769997-0.1037025,0.2364998-0.1037025,0.3570004c0,0.0655994,0.0473976,0.2660999,0.0937996,0.4596996    c0.1278992,0.5403004,0.3404007,1.4511986,0.4285965,2.8719997c0.6498032,0.5832996,3.1552048,2.9001999,5.3939056,5.8838997    c2.1477966,2.8635998,3.7761002,6.3498001,4.281395,7.4834995c1.1985016-0.2394981,2.382103-0.5393982,3.2910004-0.8833008    c2.6852036-1.0155983,3.466301-1.5740986,3.3458176-2.3902988C80.5750809,28.7369003,77.3566818,24.1315002,74.0070038,21.3862z"/><path d="M80.0871811,69.8686981c0.0040054-0.0478973,0.3151016-0.1343002,0.7348175-0.7410965    c0.6003876-0.8666,3.6656876-5.5895004,5.0896835-13.5051003c0.6824036-3.7541008,0.5589981-5.7321014,0.5569992-5.7518997    l-0.0009995-0.0133018c-0.0345993-0.7989006-0.1649017-1.6329002-0.299202-1.9799995    c-1.2706985,0.4838982-6.260994,2.6170006-9.0858002,4.148098c-0.3564987,5.376503-1.5072937,8.4587021-1.8587952,9.2882004    C76.3198853,63.5589981,77.9715805,66.606102,80.0871811,69.8686981z"/></g></g><text x="0" y="115" fill="#000000" font-size="5px" font-weight="bold" font-family="'Helvetica Neue', Helvetica, Arial-Unicode, Arial, Sans-serif">Created by Alone forever</text><text x="0" y="120" fill="#000000" font-size="5px" font-weight="bold" font-family="'Helvetica Neue', Helvetica, Arial-Unicode, Arial, Sans-serif">from the Noun Project</text></svg>