<svg xmlns="http://www.w3.org/2000/svg" xmlns:xlink="http://www.w3.org/1999/xlink" version="1.1" x="0px" y="0px" viewBox="0 0 48 60" enable-background="new 0 0 48 48" xml:space="preserve"><path d="M35.1,25.4c0,0-2.9,0.2-3.7-2.4v-2.6c0.7-1.2,1.2-2.6,1.5-4.1c0,0,0-0.1,0.1-0.1c0.2-0.4,4.3-9.6-1.5-14  C31.1,1.9,28.8,0,24.7,0c-2.5,0-5.1,0.7-7.8,2.1c-0.1,0.1-3.5,1.8-3.4,7.2c-0.1,0.8-0.5,5,1.5,6.9c0.3,1.6,0.8,3,1.5,4.2v2.6  c-0.7,2.6-3.7,2.4-3.7,2.4c-5.3,0-9.7,3.9-9.7,8.7v7.1c0,0.3,0.2,0.7,0.5,0.8C9.6,46,16.6,48,24,48c7.4,0,14.4-2,20.3-5.9  c0.3-0.2,0.5-0.5,0.5-0.8v-7.1C44.8,29.4,40.4,25.4,35.1,25.4z M33.9,27.4c-0.3,1.1-1.2,2.4-2.9,4l-4-1.4c1.7-0.7,3.6-1.8,4.5-3.4  C32.3,26.9,33.1,27.2,33.9,27.4z M24,28.8c-1.6-0.4-5.5-1.8-6.1-3.9c0.6-0.8,0.6-1.9,0.6-1.9c1.5,1.4,3.4,2.3,5.5,2.3  c2,0,3.9-0.8,5.5-2.3c0,0,0.1,1.2,0.6,1.9C29.5,27,25.6,28.4,24,28.8z M17.1,15.6c-0.3-1.2,0.4-3.9,1.5-5.5c0.2-0.2,0.3-0.4,0.4-0.6  c0.2,1.2,0.8,2.9,2.4,3.1c0.4,0,0.9-0.2,1-0.6c0.4-0.9,0.9-1.8,1.4-2.3c0.6,1.3,1.7,3.1,3.6,2.9c0.4,0,0.8-0.4,0.9-0.8  c0.2-0.8,0.7-2,1.2-2.2c0.6,0.7,2.1,2.9,1.5,5.9l-0.1,0c-0.7,4.5-3.6,7.7-7,7.7c-3.2,0-6.1-2.9-6.9-7C17.2,16.1,17.2,15.8,17.1,15.6  z M15.5,9.5c0,0,0-0.1,0-0.1c-0.1-4.1,2.2-5.4,2.3-5.4C20.2,2.6,22.5,2,24.7,2c3.5,0,5.4,1.7,5.5,1.8c0,0,0.1,0,0.1,0.1  c2.2,1.7,2.5,4.4,2.2,6.8C31.8,9,30.8,8.1,30.8,8c-0.1-0.1-0.3-0.2-0.5-0.3c-0.2,0-0.4-0.1-0.6-0.1c-1.7,0-2.6,1.6-3,2.8  c-0.5-0.5-1.1-1.5-1.3-2.4c-0.1-0.4-0.6-0.7-1-0.7c-1.4,0.1-2.5,1.6-3.1,2.7C21.1,9.6,21,8.9,21,8.3c0-0.4-0.2-0.7-0.5-0.9  c-1-0.6-2.2-0.2-3.2,1.1c-0.7,0.9-1.3,2.2-1.7,3.6C15.4,11.1,15.5,10,15.5,9.5z M16.4,26.5c0.9,1.6,2.9,2.7,4.5,3.4l-4,1.4  c-1.7-1.6-2.6-2.8-2.9-4C14.9,27.2,15.7,26.9,16.4,26.5z M42.8,40.7C37.3,44.2,30.8,46,24,46c-6.8,0-13.3-1.8-18.8-5.3v-6.6  c0-3.5,3-6.3,6.8-6.7c0.3,1.8,1.5,3.5,4,5.7c0.2,0.2,0.4,0.3,0.7,0.3c0.1,0,0.2,0,0.3-0.1l7-2.5l7,2.5c0.1,0,0.2,0.1,0.3,0.1  c0.2,0,0.5-0.1,0.7-0.3c2.5-2.2,3.7-4,4-5.7c3.8,0.4,6.8,3.2,6.8,6.7V40.7z"/></svg>