<svg xmlns="http://www.w3.org/2000/svg" version="1.1" viewBox="-5.0 -10.0 110.0 135.0">
 <path d="m20.562 16.234c0-2.2734 1.8438-4.1133 4.1133-4.1133h63.637c2.2734 0 4.1133 1.8398 4.1133 4.1133v40.258c0 2.2734-1.8398 4.1133-4.1133 4.1133h-55.387c0.30859 0.32422 0.625 0.64844 0.94922 0.97266 4.0742 4.0742 7.9766 6.668 10.625 8.082 0.90234 0.48438 2.0898 0.23047 2.875-0.76562l3.0547-3.8672c1.2227-1.5508 3.4414-1.8828 5.0625-0.75781l12.113 8.3867c2.0625 1.4297 2.6992 4.1953 1.4648 6.3789l-2.4766 4.3789c-1.0625 1.8789-2.8125 3.8086-5.3867 4.2344-6.918 1.1523-19.75-1.6328-35.758-17.645-16.008-16.008-18.797-28.836-17.645-35.754 0.42969-2.5781 2.3555-4.3281 4.2383-5.3906l4.375-2.4727c1.3125-0.74219 2.832-0.80859 4.1445-0.30078zm3.0312 12.762 7.5898 10.965c1.125 1.625 0.79297 3.8438-0.75781 5.0664l-3.8633 3.0508c-0.99609 0.78906-1.25 1.9766-0.76953 2.875 0.32422 0.60547 0.70703 1.2773 1.1602 2l20.441-17.82-23.801-18.41zm2.9219-13.844 29.316 22.68c0.39062 0.30078 0.93359 0.30078 1.3242 0l29.32-22.68zm62.879 1.5703-23.797 18.41 23.797 20.746zm-2.6641 40.852-23.578-20.551-4.1406 3.207c-1.4844 1.1445-3.5508 1.1445-5.0352 0l-4.1406-3.207-21.18 18.461c0.48828 0.67578 1.0234 1.375 1.6055 2.0898zm-66.422-28c-0.53906-0.77734-1.5781-1.0156-2.3984-0.55078l-4.375 2.4766c-1.5195 0.85547-2.5273 1.9727-2.7422 3.2461-0.92969 5.5938 1.1758 17.496 16.801 33.117 15.621 15.621 27.52 17.73 33.113 16.797 1.2773-0.21094 2.3906-1.2227 3.25-2.7383l2.4727-4.3789c0.46484-0.82031 0.22656-1.8594-0.54688-2.3945l-12.113-8.3867c-0.30859-0.21484-0.73047-0.14844-0.96484 0.14453l-3.0508 3.8672c-1.5352 1.9453-4.2734 2.8477-6.6836 1.5625-2.8945-1.5508-7.0391-4.3164-11.336-8.6133-1.2422-1.2422-2.3555-2.4727-3.3516-3.6602-1.1406-1.3672-2.1211-2.6836-2.957-3.9062l-0.046875-0.0625c-0.92969-1.3711-1.6797-2.6289-2.2578-3.7109-1.2852-2.4062-0.38672-5.1445 1.5625-6.6836l3.8672-3.0508c0.29297-0.23047 0.35547-0.65234 0.14453-0.96094z" fill-rule="evenodd"/>
<text x="0.0" y="117.5" font-size="5.0" font-weight="bold" font-family="Arbeit Regular, Helvetica, Arial-Unicode, Arial, Sans-serif" fill="#000000">Created by Giorgi</text><text x="0.0" y="122.5" font-size="5.0" font-weight="bold" font-family="Arbeit Regular, Helvetica, Arial-Unicode, Arial, Sans-serif" fill="#000000">from Noun Project</text></svg>