<svg xmlns="http://www.w3.org/2000/svg" xmlns:xlink="http://www.w3.org/1999/xlink" version="1.1" x="0px" y="0px" viewBox="0 0 100 125" enable-background="new 0 0 100 100" xml:space="preserve"><path d="M45.353,61.058c0-0.781,0.725-0.785,0.725-0.616c-0.021,0.178-0.149,0.173-0.149,0.482c0,0.558,0.792,0.802,1.079,0.827  c0.286,0.025,0.663-0.081,0.775-0.195c0.111-0.115,0.085-0.283,0.182-0.283c0.001,0,0.005,0,0.005,0s0.156,0.006,0.206,0.164  c0.143,0.448,0.433,1.156,2.202,1.156c1.728,0,2.088-0.59,2.205-0.92c0.063-0.209,0.206-0.289,0.351-0.263  c0.145,0.027-0.004,0.316,0.44,0.406c0.682,0.13,1.574-0.303,1.574-0.861c0.001-0.283-0.307-0.345-0.222-0.51  c0.085-0.165,0.8-0.013,0.8,0.645c0,0.701-0.943,1.162-1.543,1.218c-0.601,0.056-0.885-0.086-1.118,0.102  c-0.609,0.608-1.199,0.904-2.487,0.904c-1.533-0.007-2.306-0.904-2.489-0.964c-0.183-0.059-0.557,0.047-1.051-0.025  C46.345,62.254,45.353,61.758,45.353,61.058z M79.552,77.1c0.645,1.459,1.283,3.528,1.304,6.034c0.043,5.11-2.639,8.675-3.729,8.998  c1.644-3.985,1.141-7.672,0.193-10.256c-0.952,1.51-1.921,2.919-2.428,4.512c0.211,1.44,0.102,2.651-0.225,3.651  c0.171,0.941,0.514,1.964,1.094,3.108c-0.617-0.709-1.13-1.391-1.557-2.053c-1.054,1.848-2.969,2.696-4.644,2.696  c-3.205,0-4.09-1.875-3.979-3.868c1.516,4.242,5.491,2.333,6.042-1.643c-0.693,0.721-1.364,0.897-1.786,0.767  c1.502-1.643,1.031-4.392,0.5-6.154c-0.456-0.745-1.039-1.502-1.772-2.254c-2.067-2.463-2.382-4.942-2.014-7.036  c-1.356,1.537-2.825,2.868-4.387,3.887c-3.646,2.379-7.769,4.963-11.923,4.963c-4.173,0-8.313-2.595-11.972-4.995  c-2.14-1.403-4.107-3.392-5.841-5.701c-0.713,0.871-1.828,2.056-2.763,3.43c-0.644,4.261,3.397,2.76,3.397,2.76  s-0.688,1.376-2.939,1.126c-0.809-0.09-1.453-0.407-1.951-0.775c-0.165,0.661-0.226,1.337-0.138,2.022  c0.039,0.304,0.082,0.589,0.129,0.861c0.863,1.606,2.586,4.116,4.942,4.171c-0.28,0.559-1.348,1.056-3.254,0.55  c0.425,0.746,0.885,1.484,1.347,2.43c3.408,6.26-2.358,7.931-3.671,5.771c1.664,1.196,3.826-0.424,2.818-2.749  c-0.4-0.923-1.741-1.92-3.157-3.14c-0.381,1.535-1.21,3.15-2.761,4.934c2.097-4.138,0.833-6.733-0.998-9.248  c-0.859,2.695-1.248,6.83,1.051,11.046c-1.119-0.203-4.17-3.458-4.678-8.543c-0.269-2.684,0.228-4.943,0.758-6.478  c-0.723-1.207-1.289-2.534-1.478-4.099c-0.408-3.376-0.118-5.191,0.44-6.856c-0.944-1.984-1.609-4.643-1.524-7.843  c0.095-3.523,1.394-6.411,2.269-7.972c-0.431-1.168-0.775-2.439-0.73-4.072C20.12,27.661,26.45,5.541,49.66,5.013V5  c0,0,0.19,0.005,0.332,0.007C50.133,5.005,50.323,5,50.323,5v0.013c23.211,0.529,29.64,22.648,30.225,44.069  c0.043,1.597-0.315,2.887-0.808,4.091c0.876,1.565,2.168,4.444,2.262,7.953c0.103,3.859-0.882,6.935-2.137,8.981  c0.229,1.337,0.256,2.967-0.071,5.667C79.74,76.236,79.657,76.677,79.552,77.1z M22.011,58.677  c-0.348,1.072-0.599,2.289-0.587,3.554c0.004,0.421,0.02,0.824,0.041,1.216c0.102-0.395,0.202-0.814,0.296-1.267  C22.047,60.817,22.1,59.678,22.011,58.677z M27.329,67.869c-0.775,1.32-1.45,2.847-1.686,5.572c0.489-0.993,0.949-1.989,1.294-3.32  C27.128,69.379,27.252,68.616,27.329,67.869z M70.259,63.351c-0.358-1.587-0.597-3.715-0.587-6.929  c0-5.481,1.356-5.835-0.742-10.936c-0.704-0.804-2.207-2.104-4.821-2.526c-4.169-0.663-6.883,1.59-7.167,1.637  c-0.284,0.047-0.601-0.506-0.536-0.711c0.203-0.425,2.884-1.974,5.965-2.004c2.089-0.02,4.586,0.921,5.979,2.225  c-1.711-3.68-15.986-19.324-18.258-26.021C47.743,25.01,32.566,41.498,31.703,44.44c-2.729,6.123-1.191,6.147-1.191,11.982  c0.007,2.729-0.238,4.675-0.622,6.173c2.22,5.209,5.587,10.223,9.667,12.898c3.198,2.098,6.832,4.61,10.683,4.61  c3.835,0,7.452-2.501,10.639-4.581C64.78,72.976,68.035,68.303,70.259,63.351z M73.299,73.81c-0.921,2.072-1.233,3.212-0.425,6.048  C73.173,78.01,73.445,76.043,73.299,73.81z M78.069,62.4c0.013-1.245-0.18-2.46-0.45-3.543c-0.163,1.086-0.156,2.309,0.149,3.765  c0.09,0.429,0.18,0.825,0.271,1.198C78.054,63.371,78.064,62.897,78.069,62.4z M44.16,44.597c0.284,0.047,0.602-0.506,0.537-0.711  c-0.203-0.425-2.884-1.974-5.966-2.004c-3.081-0.03-7.056,2.031-7.056,4.265c0,0,1.441-2.562,5.318-3.188  C41.162,42.297,43.876,44.55,44.16,44.597z M62.018,45.352c-4.236,0.217-5.244,3.562-5.021,3.626  c0.751-0.763,1.649-1.877,3.002-2.458c-0.395,0.391-0.639,0.934-0.639,1.534c0,1.194,0.968,2.162,2.162,2.162  c1.194,0,2.162-0.968,2.162-2.162c0-0.831-0.47-1.552-1.159-1.914c2.08,0.105,3.824,1.019,4.051,2.603  c0.346,0.06,0.8-0.35,0.899-0.503C67.574,48.087,66.424,45.048,62.018,45.352z M59.556,61.848c-0.275,0-0.497,0.223-0.497,0.497  s0.223,0.497,0.497,0.497c0.275,0,0.497-0.223,0.497-0.497S59.831,61.848,59.556,61.848z M41.079,46.458  c1.443,0.559,2.383,1.728,3.163,2.52c0.224-0.064-0.785-3.409-5.021-3.626c-4.406-0.304-5.556,2.735-5.458,2.888  c0.098,0.153,0.552,0.563,0.899,0.503c0.234-1.633,2.08-2.552,4.246-2.609c-0.792,0.321-1.352,1.097-1.352,2.003  c0,1.194,0.969,2.162,2.162,2.162c1.193,0,2.162-0.968,2.162-2.162C41.881,47.459,41.568,46.855,41.079,46.458z M57.786,67.108  c0,0-2.097,5.453-7.485,5.453c-5.388,0-7.727-5.586-7.727-5.586c-0.017-0.433,0.786,0.13,1.299-0.067  c1.155-0.44,2.66-0.786,3.856-0.786c1.729,0,2.25,0.76,2.736,0.76c0.486,0,1.232-0.692,2.284-0.692c0.627,0,2.32,0.432,3.552,0.916  C57.136,67.435,57.417,66.739,57.786,67.108z M56.912,67.648c-0.871,0.3-1.792-0.044-3.655-0.027  c-1.074,0.01-2.115,0.357-3.017,0.343c-0.807-0.014-1.615-0.417-2.549-0.462c-1.852-0.088-3.415,0.243-4.444-0.112  c1.273,1.451,4.126,3.269,7.107,3.269C53.166,70.659,55.683,69.145,56.912,67.648z"/></svg>