<svg xmlns="http://www.w3.org/2000/svg" xmlns:xlink="http://www.w3.org/1999/xlink" version="1.1" x="0px" y="0px" viewBox="0 0 512 640" enable-background="new 0 0 512 512" xml:space="preserve"><g><g><g><path d="M301.06,187.071c-0.429,0-0.859-0.046-1.287-0.14l-73.524-16.15c-2.257-0.496-4.028-2.243-4.555-4.493L204.158,91.38     c-0.473-2.021,0.132-4.143,1.6-5.61l9.175-9.175c1.125-1.125,2.651-1.757,4.243-1.757s3.117,0.632,4.243,1.757l47.792,47.792     l30.54-30.541l-47.792-47.79c-1.125-1.125-1.757-2.651-1.757-4.243s0.632-3.117,1.757-4.243l9.175-9.175     c1.467-1.468,3.591-2.072,5.609-1.6l74.909,17.534c2.25,0.527,3.997,2.298,4.493,4.555l16.15,73.525     c0.438,1.999-0.171,4.083-1.618,5.53l-57.375,57.375C304.165,186.451,302.634,187.071,301.06,187.071z M232.516,159.872     l66.624,14.634l52.73-52.73l-14.635-66.624L269.258,39.24l-2.572,2.572l47.791,47.79c1.126,1.125,1.758,2.651,1.758,4.243     s-0.632,3.117-1.757,4.243l-39.025,39.026c-1.126,1.125-2.651,1.757-4.243,1.757c-1.591,0-3.117-0.632-4.242-1.757     l-47.792-47.792l-2.572,2.572L232.516,159.872z"/></g><g><path d="M459.896,316c-8.974,0-17.41-3.494-23.755-9.839L306.056,176.076c-1.126-1.125-1.758-2.651-1.758-4.243     s0.632-3.118,1.758-4.243l39.025-39.025c2.342-2.343,6.143-2.343,8.484,0L483.65,258.65c13.099,13.098,13.099,34.411,0.001,47.51     C477.306,312.506,468.869,316,459.896,316z M318.783,171.833l125.842,125.843c4.079,4.078,9.502,6.324,15.271,6.324     s11.191-2.246,15.271-6.325c8.419-8.42,8.419-22.12,0-30.54L349.323,141.293L318.783,171.833z"/></g><g><path d="M205.486,489.995H160.52c-3.073,0-5.649-2.321-5.968-5.377l-4.053-38.842c-7.405-2.193-14.595-5.175-21.463-8.899     l-30.282,24.654c-2.388,1.942-5.86,1.764-8.035-0.415l-31.782-31.844c-2.17-2.174-2.348-5.637-0.411-8.021l24.598-30.282     c-3.741-6.893-6.725-14.085-8.906-21.468l-38.836-4.053c-3.056-0.319-5.377-2.896-5.377-5.968v-44.967     c0-3.072,2.321-5.648,5.377-5.968l38.841-4.054c2.194-7.407,5.177-14.599,8.901-21.466l-24.598-30.282     c-1.938-2.387-1.759-5.852,0.415-8.026l31.782-31.781c2.174-2.173,5.639-2.354,8.025-0.415l30.283,24.598     c6.869-3.725,14.06-6.707,21.467-8.901l4.053-38.842c0.319-3.056,2.895-5.377,5.968-5.377h44.966     c3.073,0,5.649,2.321,5.968,5.377l4.052,38.836c7.383,2.181,14.576,5.165,21.468,8.906l30.282-24.597     c2.385-1.936,5.847-1.76,8.021,0.41l31.844,31.781c2.18,2.175,2.358,5.647,0.415,8.035l-24.653,30.282     c3.724,6.866,6.704,14.057,8.898,21.462l38.842,4.054c3.056,0.319,5.377,2.896,5.377,5.968v44.967     c0,3.072-2.321,5.648-5.377,5.968l-38.837,4.053c-2.181,7.381-5.163,14.571-8.902,21.463l24.652,30.282     c1.942,2.387,1.765,5.855-0.411,8.03l-31.844,31.844c-2.176,2.178-5.645,2.351-8.03,0.411l-30.281-24.653     c-6.892,3.74-14.083,6.723-21.464,8.903l-4.052,38.837C211.135,487.674,208.559,489.995,205.486,489.995z M165.927,477.995     h34.152l3.917-37.538c0.261-2.502,2.056-4.576,4.496-5.193c9.029-2.285,17.788-5.916,26.034-10.792     c2.162-1.279,4.893-1.074,6.842,0.512l29.26,23.821l24.184-24.183l-23.821-29.261c-1.586-1.948-1.79-4.679-0.512-6.842     c4.875-8.246,8.506-17.005,10.792-26.033c0.617-2.439,2.691-4.233,5.193-4.495L324,354.074V319.92l-37.537-3.918     c-2.499-0.261-4.57-2.051-5.191-4.486c-2.313-9.077-5.945-17.84-10.794-26.043c-1.278-2.162-1.074-4.893,0.512-6.841     l23.817-29.255l-24.181-24.132l-29.264,23.771c-1.949,1.582-4.676,1.786-6.836,0.507c-8.246-4.875-17.005-8.506-26.034-10.792     c-2.439-0.617-4.234-2.691-4.495-5.194L200.08,196h-34.153l-3.917,37.538c-0.261,2.5-2.051,4.571-4.486,5.192     c-9.078,2.313-17.84,5.944-26.043,10.794c-2.162,1.277-4.888,1.074-6.836-0.508l-29.261-23.768l-24.13,24.129l23.768,29.26     c1.583,1.948,1.785,4.676,0.508,6.837c-4.849,8.201-8.481,16.963-10.795,26.042c-0.62,2.435-2.692,4.226-5.191,4.486     l-37.537,3.917v34.154l37.537,3.917c2.502,0.262,4.576,2.056,5.193,4.495c2.286,9.029,5.917,17.788,10.792,26.033     c1.277,2.161,1.075,4.889-0.508,6.837L71.25,424.621l24.133,24.181l29.255-23.818c1.948-1.585,4.678-1.791,6.842-0.512     c8.204,4.851,16.966,8.482,26.042,10.794c2.435,0.62,4.226,2.692,4.487,5.191L165.927,477.995z"/></g><g><path d="M183.034,405.16c-37.603,0-68.194-30.564-68.194-68.133c0-37.603,30.592-68.194,68.194-68.194     c37.568,0,68.132,30.592,68.132,68.194C251.166,374.596,220.602,405.16,183.034,405.16z M183.034,280.833     c-30.986,0-56.194,25.209-56.194,56.194c0,30.952,25.208,56.133,56.194,56.133c30.951,0,56.132-25.181,56.132-56.133     C239.166,306.042,213.985,280.833,183.034,280.833z"/></g></g></g><text x="0" y="527" fill="#000000" font-size="5px" font-weight="bold" font-family="'Helvetica Neue', Helvetica, Arial-Unicode, Arial, Sans-serif">Created by Flatart</text><text x="0" y="532" fill="#000000" font-size="5px" font-weight="bold" font-family="'Helvetica Neue', Helvetica, Arial-Unicode, Arial, Sans-serif">from the Noun Project</text></svg>