<svg xmlns="http://www.w3.org/2000/svg" xmlns:xlink="http://www.w3.org/1999/xlink" version="1.1" x="0px" y="0px" viewBox="0 0 80 100" style="enable-background:new 0 0 80 80;" xml:space="preserve"><path d="M67.7832031,54.2939453c-1.8232422-2.2719727-7.2001953-3.8120117-15.9785156-4.5771484  c-2.4921875-0.2172852-4.4648438-2.1870117-4.6904297-4.6831055l-0.258667-2.8643188  c3.6841431-2.1806641,6.4697266-5.9698486,7.6139526-10.5137939c0.0790405,0.0200806,0.1550903,0.0485229,0.2404175,0.0485229  c2.1679688,0,3.9316406-1.7636719,3.9316406-3.9311523c0-1.7593384-1.1697388-3.2349243-2.7667236-3.7349243  c0.475708-2.7383423,0.8388062-6.4988403-0.0653076-9.1596069c-0.6533203-1.8027344-2.9140625-4.8564453-6.9433594-4.2700195  C47.84375,8.8037109,44.6152344,4.6918945,37.2207031,6.824707c-1.4199219,0.4101563-2.8349609,1.0878906-4.3256836,2.0712891  c-1.6708984,1.1025391-5.2680664,2.8701172-10.5610352,2.331543c-0.2739258-0.0268555-0.5419922,0.0566406-0.7495117,0.2329102  C21.3764648,11.637207,21.25,11.8911133,21.234375,12.1635742c-0.0107422,0.1806641-0.2070313,4.2143555,3.0341797,6.8857422  c-0.3442993,0.9894409-0.869751,2.8353271-0.8682861,4.8293457c-1.7225342,0.5795288-2.8699341,2.3040771-2.6512451,4.1804199  c0.2333984,1.9990234,1.9365234,3.4755859,3.9023438,3.4755859c0.0203247,0,0.0411377-0.0032959,0.0615234-0.0036011  c1.1983032,4.9020386,4.3092651,8.928894,8.3948975,11.0404663l-0.2225342,2.4621582  c-0.2250977,2.4960938-2.1977539,4.4658203-4.6894531,4.6831055c-8.7792969,0.7651367-14.1557617,2.3051758-15.9794922,4.5771484  c-2.9980469,3.7348633-0.4970703,17.1538086-0.2016602,18.671875l0.1572266,0.809082h55.65625l0.1572266-0.809082  c0.2949219-1.5180664,2.7958984-14.9370117-0.2011719-18.671875H67.7832031z M47.8681641,58.2026367l1.8740234,2.7885742  l-7.0556641,7.4790039l6.2050781-16.5097656l2.7109375,4.6845703h-2.9042969c-0.3691406,0-0.7089844,0.2036133-0.8828125,0.5297852  S47.6621094,57.8959961,47.8681641,58.2026367z M32.184082,57.1748047  c-0.1733398-0.3261719-0.5126953-0.5297852-0.8823242-0.5297852h-2.9042969l2.7114258-4.6845703l6.2041016,16.5097656  l-7.0551758-7.4790039l1.8740234-2.7885742C32.3378906,57.8959961,32.3579102,57.5009766,32.184082,57.1748047z   M32.9272461,51.1140137C34.9371338,51.9788208,37.4126587,52.4589844,40,52.4589844  c2.5841064,0,5.0623169-0.4838257,7.0740967-1.3496704L40,69.9349976L32.9272461,51.1140137z M56.6416016,27.7729492  c0,1.017334-0.7930908,1.8444214-1.7926025,1.9171143c0.0888672-0.6359253,0.1459961-1.2819214,0.1695557-1.9386597  c0.0332031-0.0625,0.0653687-0.1259155,0.0849609-0.1957397c0.0238037-0.0844727,0.1838379-0.6639404,0.381958-1.5487061  C56.164978,26.3063965,56.6416016,26.9840698,56.6416016,27.7729492z M23.2915039,13.3041992  c5.2817383,0.2402344,8.9375-1.5727539,10.7050781-2.7387695c1.3198242-0.8706055,2.5561523-1.4658203,3.7788086-1.8188477  c7.4443359-2.1508789,9.5048828,3.0917969,9.5947266,3.3330078c0.1757813,0.4799805,0.6806641,0.7485352,1.1816406,0.6269531  c3.8408203-0.9628906,5.2324219,2.4633789,5.3701172,2.8339844c0.8955078,2.6342773,0.2724609,6.8330078-0.2460938,9.3544922  c-0.9746094-1.6713867-1.5996094-3.5078125-1.9277344-4.6313477C51.3076172,18.75,50.5205078,17.46875,49.4726563,16.5585938  c-1.4873047-1.2905273-3.1318359-1.715332-4.6533203-1.715332c-2.8310547,0-5.2333984,1.4711914-5.3925781,1.5708008  c-5.0717773,3.2646484-8.0209961,3.6367188-9.3369141,3.5683594c-1.2407227-0.059082-2.4604492,0.4125977-3.3227539,1.309082  c-0.5571289,0.5795898-0.9975586,1.2197266-1.3447266,1.8583984c0.1591797-2.1518555,0.9541016-4.0219727,0.9667969-4.0512695  c0.190918-0.4414063,0.0405273-0.9580078-0.3583984-1.2270508C24.0395508,16.5288086,23.4575195,14.5141602,23.2915039,13.3041992z   M22.7353516,27.8271484c-0.0882568-0.7587891,0.2821655-1.4625244,0.8866577-1.8483887  c0.1239624,0.5471802,0.3096924,1.0857544,0.5631714,1.6044922c0.0175781,0.6485596,0.069519,1.286438,0.1507568,1.9151611  C23.5097046,29.3585205,22.8372192,28.6987915,22.7353516,27.8271484z M26.1672974,27.1938477  c0.0923462-0.6461182,0.5158081-2.9292603,2.041687-4.5161133c0.4594727-0.4790039,1.1074219-0.7270508,1.7768555-0.6982422  c1.8950195,0.097168,5.2563477-0.4936523,10.512207-3.8764648c0.0449219-0.0288086,4.515625-2.7661133,7.6640625-0.0341797  c0.7558594,0.6572266,1.3330078,1.6098633,1.6660156,2.7548828c0.4624634,1.5853271,1.4819946,4.4609375,3.2027588,6.6643066  c-0.1445313,5.8601685-3.2646484,10.8862915-7.7241211,13.2473145c-0.406311,0.2149658-0.8195801,0.4052124-1.2380371,0.5719604  c-0.0189819,0.0075073-0.0375366,0.0158691-0.0565796,0.0233154c-0.4066772,0.159729-0.8187256,0.2937622-1.2338257,0.4081421  c-0.0387573,0.0106201-0.0766602,0.0233154-0.1155396,0.0335083c-0.3811035,0.1010132-0.7657471,0.1765747-1.1514282,0.2394409  c-0.0799561,0.0128784-0.1586304,0.0299072-0.2390747,0.0411377c-0.3389893,0.0482788-0.6794434,0.0730591-1.0200195,0.0919189  c-0.1294556,0.007019-0.2575073,0.0192871-0.3878784,0.0220947c-0.3134155,0.0071411-0.626709-0.0063477-0.9398193-0.0239868  c-0.1465454-0.0083008-0.2943115-0.0115356-0.4396362-0.0250854c-0.3221436-0.0301514-0.6429443-0.0802002-0.9630127-0.1366577  c-0.1257324-0.0220947-0.2529297-0.0388794-0.3775024-0.0649414c-0.3439331-0.0720825-0.6849976-0.1653442-1.0244141-0.2680054  c-0.0965576-0.0291748-0.1950684-0.0526733-0.2907715-0.0842896c-0.3679199-0.1213989-0.7311401-0.265625-1.0911865-0.4232788  c-0.0835571-0.0366211-0.1702881-0.0658569-0.2530518-0.1043091l-0.1585083-0.0719604  C29.5635986,38.6687622,26.2130737,33.3670654,26.1672974,27.1938477z M35.4310303,43.5288696  c0.3042603,0.0951538,0.6088867,0.1881104,0.9172363,0.2619629c0.1947021,0.0465088,0.3933716,0.0792236,0.5907593,0.1174927  c0.2716064,0.0527344,0.5431519,0.1020508,0.8166504,0.1384888c0.2044067,0.0272217,0.4100952,0.0474243,0.6168823,0.0656128  c0.28125,0.0247803,0.562439,0.0397339,0.8444214,0.0474243c0.1303711,0.0036011,0.2573853,0.0217896,0.3884888,0.0217896  c0.0736694,0,0.1448364-0.0111084,0.2182617-0.0122681c0.2973633-0.0048828,0.5939331-0.026123,0.890686-0.0499878  c0.3059692-0.024231,0.6089478-0.057373,0.90979-0.1011963c0.3052979-0.0448608,0.6107178-0.0897217,0.9134521-0.1549683  c0.2762451-0.059082,0.5453491-0.1373901,0.8161621-0.2126465c0.1682129-0.0469971,0.336853-0.0904541,0.5037231-0.1438599  c0.2940674-0.0935669,0.5820313-0.2003174,0.8687134-0.3125c0.0686035-0.0269775,0.1390381-0.0464478,0.2073364-0.074585  l0.1884766,2.09375c0.1322021,1.4647827,0.7019653,2.7958374,1.5731812,3.8704224  C44.8793945,49.961853,42.5111694,50.4589844,40,50.4589844c-2.5172729,0-4.880127-0.4976196-6.6950684-1.3761597  c0.8706055-1.0744019,1.4401245-2.4051514,1.5725098-3.8694458l0.1622925-1.7962646  C35.1676636,43.4610596,35.3016968,43.4885254,35.4310303,43.5288696z M13.7758789,55.5458984  c1.4067383-1.7524414,6.7260742-3.1508789,14.59375-3.8369141c0.210022-0.0183105,0.4171143-0.0463257,0.62146-0.0821533  l-3.1937256,5.5172119c-0.1787109,0.3095703-0.1791992,0.690918-0.0004883,1.0004883s0.5087891,0.5004883,0.8662109,0.5004883  h2.7617188l-1.2724609,1.8935547c-0.2602539,0.3876953-0.2177734,0.9038086,0.1025391,1.2436523l9.4261475,9.9926758H13.8266602  C12.84375,66.309082,12.0415039,57.706543,13.7758789,55.5458984z M66.1738281,71.7749023H42.3189697l9.4261475-9.9926758  c0.3203125-0.3398438,0.3632813-0.855957,0.1025391-1.2436523l-1.2724609-1.8935547h2.7617188  c0.3574219,0,0.6875-0.190918,0.8662109-0.5004883s0.1787109-0.690918-0.0009766-1.0004883L51.008728,51.62677  c0.2045288,0.0358887,0.4118652,0.0639038,0.6221313,0.0822144c7.8671875,0.6860352,13.1865234,2.0844727,14.59375,3.8369141  h-0.0009766C67.9580078,57.706543,67.15625,66.309082,66.1738281,71.7749023z"/></svg>