<svg xmlns="http://www.w3.org/2000/svg" version="1.1" viewBox="-5.0 -10.0 110.0 135.0">
 <path d="m86.34 66.629h-8.3281c0.75391-1.9297 1.3086-3.918 1.6445-5.9297 0.089844-0.54297-0.23047-1.0664-0.75-1.2383l-2.0156-0.66016v-6.1211l2.0156-0.66016c0.52344-0.17188 0.83984-0.69531 0.75-1.2383-0.74219-4.4766-2.5352-8.8008-5.1836-12.508-0.32031-0.44531-0.91797-0.59375-1.4062-0.34375l-1.8867 0.95703-4.3281-4.3281 0.95703-1.8867c0.25-0.48828 0.10156-1.0859-0.34375-1.4062-3.707-2.6484-8.0312-4.4414-12.508-5.1836-0.54688-0.089843-1.0664 0.23047-1.2383 0.75l-0.65625 2.0156h-6.1211l-0.65625-2.0156c-0.17188-0.51953-0.69531-0.83984-1.2383-0.75-4.4766 0.74219-8.8008 2.5352-12.508 5.1836-0.44531 0.32031-0.59375 0.91797-0.34375 1.4062l0.95703 1.8867-4.3281 4.3281-1.8867-0.95703c-0.48828-0.24609-1.0859-0.10156-1.4062 0.34375-2.6484 3.707-4.4414 8.0312-5.1836 12.508-0.089844 0.54297 0.23047 1.0664 0.75 1.2383l2.0156 0.66016v6.1211l-2.0156 0.66016c-0.52344 0.17187-0.83984 0.69531-0.75 1.2383 0.33594 2.0117 0.89062 4 1.6445 5.9297h-8.3281c-2.3633 0-4.2852 1.9219-4.2852 4.2852v1.9062c0 0.61328 0.49609 1.1094 1.1094 1.1094h79.027c0.61328 0 1.1094-0.49609 1.1094-1.1094v-1.9062c0-2.3633-1.9219-4.2852-4.2852-4.2852zm-63.633-5.3555 1.8555-0.60547c0.45703-0.14844 0.76562-0.57422 0.76562-1.0547v-7.7344c0-0.48047-0.30859-0.90625-0.76562-1.0547l-1.8555-0.60938c0.70703-3.5 2.1055-6.875 4.0859-9.8594l1.7383 0.88281c0.42969 0.21875 0.94922 0.13672 1.2891-0.20703l5.4688-5.4688c0.33984-0.33984 0.42188-0.85938 0.20703-1.2891l-0.88281-1.7383c2.9844-1.9805 6.3594-3.3789 9.8594-4.0859l0.60547 1.8555c0.14844 0.45703 0.57422 0.76562 1.0547 0.76562h7.7344c0.48047 0 0.90625-0.30859 1.0547-0.76562l0.60547-1.8555c3.5 0.70703 6.875 2.1055 9.8594 4.0859l-0.88281 1.7383c-0.21875 0.42969-0.13672 0.94922 0.20703 1.2891l5.4688 5.4688c0.33984 0.33984 0.85937 0.42188 1.2891 0.20703l1.7383-0.88281c1.9805 2.9844 3.3789 6.3594 4.0859 9.8594l-1.8555 0.60938c-0.45703 0.14844-0.76562 0.57422-0.76562 1.0547v7.7344c0 0.48047 0.30859 0.90625 0.76562 1.0547l1.8555 0.60547c-0.36719 1.8203-0.92969 3.6172-1.6719 5.3555h-9.7266c2.1953-3.1953 3.3867-6.9844 3.3867-10.887 0-10.633-8.6484-19.281-19.281-19.281s-19.281 8.6484-19.281 19.281c0 3.9023 1.1914 7.6914 3.3867 10.887h-9.7266c-0.74219-1.7383-1.3008-3.5352-1.6719-5.3555zm36.402 5.3555c3.1758-2.6562 5.0938-6.6211 5.0938-10.887 0-7.832-6.3711-14.203-14.203-14.203s-14.203 6.3711-14.203 14.203c0 4.2656 1.918 8.2266 5.0938 10.887h-3.9883c-2.5508-3.0625-3.9609-6.9023-3.9609-10.887 0-9.4062 7.6523-17.059 17.059-17.059s17.059 7.6523 17.059 17.059c0 3.9805-1.4102 7.8242-3.9609 10.887zm-14.082 0c-4.2617-1.9531-7.0078-6.1992-7.0078-10.887 0-6.6055 5.375-11.98 11.98-11.98s11.98 5.375 11.98 11.98c0 4.6836-2.7461 8.9336-7.0078 10.887zm43.375 5.0781h-76.805v-0.79297c0-1.1367 0.92578-2.0625 2.0625-2.0625h72.68c1.1367 0 2.0625 0.92578 2.0625 2.0625z"/>
<text x="0.0" y="117.5" font-size="5.0" font-weight="bold" font-family="Arbeit Regular, Helvetica, Arial-Unicode, Arial, Sans-serif" fill="#000000">Created by Sanjaya</text><text x="0.0" y="122.5" font-size="5.0" font-weight="bold" font-family="Arbeit Regular, Helvetica, Arial-Unicode, Arial, Sans-serif" fill="#000000">from Noun Project</text></svg>