<svg xmlns="http://www.w3.org/2000/svg" xmlns:xlink="http://www.w3.org/1999/xlink" version="1.1" x="0px" y="0px" viewBox="0 0 550 687.5" style="enable-background:new 0 0 550 550;" xml:space="preserve"><g><g><g><path d="M67,527c-1.463,0-2.921-0.4-4.207-1.194C60.436,524.348,59,521.772,59,519v-32H27c-4.418,0-8-3.582-8-8V239     c0-4.418,3.582-8,8-8h205c4.418,0,8,3.582,8,8s-3.582,8-8,8H35v224h32c4.418,0,8,3.582,8,8v27.056l68.422-34.211     c1.111-0.556,2.336-0.845,3.578-0.845h192v-32c0-4.418,3.582-8,8-8s8,3.582,8,8v40c0,4.418-3.582,8-8,8H148.889l-78.311,39.155     C69.449,526.72,68.223,527,67,527z"/></g><g><path d="M227,295H67c-4.418,0-8-3.582-8-8s3.582-8,8-8h160c4.418,0,8,3.582,8,8S231.418,295,227,295z"/></g><g><path d="M227,343H67c-4.418,0-8-3.582-8-8s3.582-8,8-8h160c4.418,0,8,3.582,8,8S231.418,343,227,343z"/></g><g><path d="M227,391H67c-4.418,0-8-3.582-8-8s3.582-8,8-8h160c4.418,0,8,3.582,8,8S231.418,391,227,391z"/></g><g><path d="M227,439H67c-4.418,0-8-3.582-8-8s3.582-8,8-8h160c4.418,0,8,3.582,8,8S231.418,439,227,439z"/></g><g><path d="M395,367h-96c-4.418,0-8-3.582-8-8c0-28.182-12.184-54.986-33.426-73.539c-13.815-12.066-24.883-26.519-32.895-42.956     c-9.177-18.844-13.778-39.087-13.678-60.169c0.174-36.255,14.388-70.271,40.023-95.78C276.658,61.049,310.745,47,346.999,47     c0.003,0,0,0,0.002,0C421.991,47.001,483,108.01,483,183c0,39.142-16.889,76.411-46.335,102.25     C415.271,304.025,403,330.906,403,359C403,363.418,399.418,367,395,367z M306.718,351h80.567     c2.121-29.755,16.007-57.749,38.827-77.776C452.097,250.422,467,217.537,467,183c0-66.167-53.831-119.999-119.999-120     c-65.853-0.001-119.684,53.567-120,119.412c-0.089,18.608,3.969,36.469,12.061,53.085c7.07,14.503,16.84,27.26,29.037,37.913     C290.803,293.239,304.614,321.167,306.718,351z"/></g><g><path d="M395,399h-96c-4.418,0-8-3.582-8-8v-32c0-4.418,3.582-8,8-8h96c4.418,0,8,3.582,8,8v32C403,395.418,399.418,399,395,399z      M307,383h80v-16h-80V383z"/></g><g><path d="M347,447c-22.056,0-40-17.944-40-40v-16c0-4.418,3.582-8,8-8h64c4.418,0,8,3.582,8,8v16C387,429.056,369.056,447,347,447     z M323,399v8c0,13.233,10.767,24,24,24s24-10.767,24-24v-8H323z"/></g><g><path d="M347,367c-4.418,0-8-3.582-8-8V255c0-4.418,3.582-8,8-8s8,3.582,8,8v104C355,363.418,351.418,367,347,367z"/></g><g><path d="M347,263c-22.056,0-40-17.944-40-40s17.944-40,40-40s40,17.944,40,40S369.056,263,347,263z M347,199     c-13.233,0-24,10.767-24,24s10.767,24,24,24s24-10.767,24-24S360.233,199,347,199z"/></g><g><path d="M259,59c-2.047,0-4.095-0.781-5.657-2.343l-20-20c-3.125-3.124-3.125-8.189,0-11.313c3.124-3.124,8.189-3.124,11.313,0     l20,20c3.125,3.124,3.125,8.189,0,11.313C263.095,58.219,261.047,59,259,59z"/></g><g><path d="M213.355,91.87c-1.314,0-2.647-0.325-3.878-1.008l-24.725-13.736c-3.862-2.146-5.254-7.016-3.108-10.878     c2.145-3.862,7.015-5.254,10.878-3.108l24.725,13.736c3.862,2.146,5.254,7.016,3.108,10.878     C218.894,90.385,216.166,91.87,213.355,91.87z"/></g><g><path d="M199,151h-28c-4.418,0-8-3.582-8-8s3.582-8,8-8h28c4.418,0,8,3.582,8,8S203.418,151,199,151z"/></g><g><path d="M435,59c-2.048,0-4.095-0.781-5.657-2.343c-3.124-3.124-3.124-8.189,0-11.313l20-20c3.125-3.124,8.189-3.124,11.314,0     c3.124,3.124,3.124,8.189,0,11.313l-20,20C439.095,58.219,437.048,59,435,59z"/></g><g><path d="M480.645,91.87c-2.811,0-5.538-1.484-7-4.116c-2.146-3.862-0.754-8.733,3.108-10.878l24.725-13.736     c3.861-2.146,8.732-0.755,10.878,3.108c2.146,3.862,0.754,8.733-3.108,10.878l-24.725,13.736     C483.292,91.545,481.959,91.87,480.645,91.87z"/></g><g><path d="M523,151h-28c-4.418,0-8-3.582-8-8s3.582-8,8-8h28c4.418,0,8,3.582,8,8S527.418,151,523,151z"/></g></g></g><text x="0" y="565" fill="#000000" font-size="5px" font-weight="bold" font-family="'Helvetica Neue', Helvetica, Arial-Unicode, Arial, Sans-serif">Created by SAM Designs</text><text x="0" y="570" fill="#000000" font-size="5px" font-weight="bold" font-family="'Helvetica Neue', Helvetica, Arial-Unicode, Arial, Sans-serif">from the Noun Project</text></svg>