<svg xmlns="http://www.w3.org/2000/svg" viewBox="0 0 64 80" x="0px" y="0px"><g><path d="M29,54.5H15c-.82812,0-1.5-.67188-1.5-1.5V30.11621l-8.93066-2.67969c-.39941-.11914-.73047-.40039-.91504-.77344-.18359-.37402-.2041-.80762-.05566-1.19727L10.12891,8.32617c1.09375-2.88574,3.9082-4.82617,7.00098-4.82617h29.74023c3.09277,0,5.90723,1.94043,7.00195,4.82812l6.5293,17.1377c.14844,.38965,.12793,.82324-.05566,1.19727-.18457,.37305-.51562,.6543-.91504,.77344l-8.93066,2.67969v4.88379c0,.82812-.67188,1.5-1.5,1.5s-1.5-.67188-1.5-1.5v-6c0-.66211,.43457-1.24609,1.06934-1.43652l8.45508-2.53711-5.95605-15.63184c-.65723-1.73242-2.34375-2.89453-4.19824-2.89453H17.12988c-1.85449,0-3.54102,1.16211-4.19727,2.89258l-5.95703,15.63379,8.45508,2.53711c.63477,.19043,1.06934,.77441,1.06934,1.43652v22.5h12.5c.82812,0,1.5,.67188,1.5,1.5s-.67188,1.5-1.5,1.5Z"/><path d="M32,14.5c-5.23828,0-9.5-4.26172-9.5-9.5,0-.82812,.67188-1.5,1.5-1.5s1.5,.67188,1.5,1.5c0,3.58398,2.91602,6.5,6.5,6.5s6.5-2.91602,6.5-6.5c0-.82812,.67188-1.5,1.5-1.5s1.5,.67188,1.5,1.5c0,5.23828-4.26172,9.5-9.5,9.5Z"/><path d="M15,30.5c-.82812,0-1.5-.67188-1.5-1.5v-9c0-.82812,.67188-1.5,1.5-1.5s1.5,.67188,1.5,1.5v9c0,.82812-.67188,1.5-1.5,1.5Z"/><path d="M49,30.5c-.82812,0-1.5-.67188-1.5-1.5v-9c0-.82812,.67188-1.5,1.5-1.5s1.5,.67188,1.5,1.5v9c0,.82812-.67188,1.5-1.5,1.5Z"/><path d="M27,44.5h-6c-.82812,0-1.5-.67188-1.5-1.5v-6c0-.82812,.67188-1.5,1.5-1.5s1.5,.67188,1.5,1.5v4.5h4.5c.82812,0,1.5,.67188,1.5,1.5s-.67188,1.5-1.5,1.5Z"/><path d="M21,26.5c-.82812,0-1.5-.67188-1.5-1.5v-6c0-.82812,.67188-1.5,1.5-1.5h6c.82812,0,1.5,.67188,1.5,1.5s-.67188,1.5-1.5,1.5h-4.5v4.5c0,.82812-.67188,1.5-1.5,1.5Z"/><path d="M43,26.5c-.82812,0-1.5-.67188-1.5-1.5v-4.5h-4.5c-.82812,0-1.5-.67188-1.5-1.5s.67188-1.5,1.5-1.5h6c.82812,0,1.5,.67188,1.5,1.5v6c0,.82812-.67188,1.5-1.5,1.5Z"/></g><path d="M59,60.5h-24c-.82812,0-1.5-.67188-1.5-1.5v-24c0-.82812,.67188-1.5,1.5-1.5h24c.82812,0,1.5,.67188,1.5,1.5v24c0,.82812-.67188,1.5-1.5,1.5Zm-22.5-3h21v-21h-21v21Z"/><path d="M42,56.5c-.82812,0-1.5-.67188-1.5-1.5v-16c0-.82812,.67188-1.5,1.5-1.5s1.5,.67188,1.5,1.5v16c0,.82812-.67188,1.5-1.5,1.5Z"/><path d="M52,56.5c-.82812,0-1.5-.67188-1.5-1.5v-16c0-.82812,.67188-1.5,1.5-1.5s1.5,.67188,1.5,1.5v16c0,.82812-.67188,1.5-1.5,1.5Z"/><path d="M55,53.5h-16c-.82812,0-1.5-.67188-1.5-1.5s.67188-1.5,1.5-1.5h16c.82812,0,1.5,.67188,1.5,1.5s-.67188,1.5-1.5,1.5Z"/><path d="M55,43.5h-16c-.82812,0-1.5-.67188-1.5-1.5s.67188-1.5,1.5-1.5h16c.82812,0,1.5,.67188,1.5,1.5s-.67188,1.5-1.5,1.5Z"/><text x="0" y="79" fill="#000000" font-size="5px" font-weight="bold" font-family="'Helvetica Neue', Helvetica, Arial-Unicode, Arial, Sans-serif">Created by Eklip Studio</text><text x="0" y="84" fill="#000000" font-size="5px" font-weight="bold" font-family="'Helvetica Neue', Helvetica, Arial-Unicode, Arial, Sans-serif">from the Noun Project</text></svg>