<svg xmlns="http://www.w3.org/2000/svg" version="1.1" viewBox="-5.0 -10.0 110.0 135.0">
 <path d="m91.406 34.586-7.0312-4.0586v-21.152c0-0.86328-0.69922-1.5625-1.5625-1.5625h-10.938c-0.86328 0-1.5625 0.69922-1.5625 1.5625v13.039l-19.531-11.266c-0.48438-0.28125-1.0781-0.28125-1.5625 0l-40.625 23.438c-0.48438 0.27734-0.78125 0.79297-0.78125 1.3516v9.375c0 0.55859 0.29688 1.0742 0.78125 1.3516 0.48438 0.27734 1.0781 0.28125 1.5625 0l5.4688-3.1562v37.742h-3.125c-0.86328 0-1.5625 0.69922-1.5625 1.5625v7.8125c0 0.86328 0.69922 1.5625 1.5625 1.5625h75c0.86328 0 1.5625-0.69922 1.5625-1.5625v-7.8125c0-0.86328-0.69922-1.5625-1.5625-1.5625h-3.125v-37.738l5.4688 3.1562c0.24219 0.13672 0.51172 0.20703 0.78125 0.20703s0.53906-0.070312 0.78125-0.21094c0.48438-0.27734 0.78125-0.79297 0.78125-1.3516v-9.375c0-0.55859-0.29688-1.0742-0.78125-1.3516zm-17.969-23.648h7.8125v3.125h-7.8125zm0 6.25h7.8125v11.539l-7.8125-4.5078zm12.5 67.188v4.6875h-71.875v-4.6875zm-21.875-29.688h-27.734c-0.86328 0-1.5625 0.69922-1.5625 1.5625v25h-16.016v-39.543l31.25-18.031 31.25 18.031v39.543h-15.625v-25c0-0.86328-0.69922-1.5625-1.5625-1.5625zm-1.5625 3.125v23.438h-24.609v-23.438zm26.562-15.203-38.281-22.086c-0.24219-0.14063-0.51172-0.21094-0.78125-0.21094s-0.53906 0.070312-0.78125 0.21094l-38.281 22.086v-5.7656l39.062-22.539 39.062 22.535z"/>
<text x="0.0" y="117.5" font-size="5.0" font-weight="bold" font-family="Arbeit Regular, Helvetica, Arial-Unicode, Arial, Sans-serif" fill="#000000">Created by wahya</text><text x="0.0" y="122.5" font-size="5.0" font-weight="bold" font-family="Arbeit Regular, Helvetica, Arial-Unicode, Arial, Sans-serif" fill="#000000">from Noun Project</text></svg>