<svg xmlns="http://www.w3.org/2000/svg" version="1.1" viewBox="-5.0 -10.0 110.0 135.0">
 <path d="m15.641 55.562 4.8906 2.9531v1.4688l0.046875 24.938v3.875h22.359c1.9062-0.015625 3.8125-0.046875 5.7031-0.078125l19.609 0.10938h11.219v-6.1875l-0.078125-15.109-0.046875-9.1719 12-7.3594 3.5312-2.1719-2.9375-7.0156-6.0469-14.75c-0.25-0.60938-0.54688-1.2188-0.82812-1.7969-0.09375-0.20312-0.28125-0.46875-0.3125-0.42188-0.046875 0.09375-0.09375 0.35938 0 0.57812 0.45312 1.25 0.92188 2.5312 1.4219 3.7656 1.3125 3.2031 2.6094 6.3906 3.9219 9.5781l3.8906 9.7812-6.2188 3.6406c-2.0312 1.1562-4.0469 2.3281-6.0781 3.5-0.78125 0.45312-1.5781 0.89062-2.3594 1.3438l-0.0625-13.188v-0.078125h-2.3281l0.03125 14.875v1.1875l0.57812-0.34375-0.21875 14.156-0.20312 12.875h-0.32812l-14.188-0.078125v-0.046875s-5.2969-0.09375-5.2969-0.09375l-14.703-0.046875h-6.5469l-12.953 0.015625v-0.046875l0.09375-21.719c0-3.5-0.015625-7.0156-0.03125-10.531v-5.4062l0.046875-4.0781v-0.71875h-0.03125-2.6719v1.3281l0.03125 4.9219v5.5156l-0.10938-0.046875-2.0938-1.2344-4.1875-2.4844-6.4375-3.7969 3.6719-9.4219 2.9375-7.6094 2-5.2969 5.8125-3.4688 14.141-8.2812c0.48438 1.1875 0.98438 2.3125 1.4375 3.5312 0.21875 0.59375 0.5 1.1719 0.85938 1.7031 0.6875 1.0469 1.4688 2.0625 2.4062 2.9531 0.4375 0.4375 0.92188 0.82812 1.4219 1.1875 0.5 0.3125 1.0156 0.59375 1.5469 0.82812v0.046875c0.17188 0.10938 0.35938 0.23438 0.5625 0.32812 0.5625 0.23438 1.1406 0.42188 1.7344 0.57812l0.79688 0.17188c0.59375 0.10938 1.2188 0.15625 1.8125 0.21875 0.92188 0.078125 1.8594 0.125 2.7969 0.046875 0.84375-0.0625 1.625-0.34375 2.4688-0.4375 0.078125 0 0.17188-0.046875 0.25-0.078125 0.89062-0.29688 1.7656-0.65625 2.5781-1.125 0.71875-0.39062 1.3906-0.85938 2.0156-1.3594 0.25-0.21875 0.51562-0.42188 0.75-0.67188 0.35938-0.40625 0.70312-0.8125 1.0156-1.2344 0.48438-0.57812 0.9375-1.1875 1.3125-1.8281 0.45312-0.79688 0.76562-1.6406 1.2188-2.4219 0.20312-0.34375 0.34375-0.73438 0.375-1.1406 0.09375-0.53125 0.0625-1.0938 0.03125-1.625 2.0312 1.1562 4.2188 2.3438 6.2969 3.4531l13.938 7.2969c0.26562 0.14062 0.5 0.15625 0.75 0.21875-0.21875-0.1875-0.40625-0.40625-0.64062-0.54688l-4.6094-2.6094-14.891-8.5625-1.8125-1.0312h-9.75-15.641l-2.7344 1.5469-19.734 11-0.96875 2.375-9.0938 22.234 3.8906 2.3594zm22-42.5h0.5c7.6094-0.10938 15.203-0.3125 22.859-0.25h1.4062l0.89062 0.51562c-0.03125 0.14062-0.078125 0.29688-0.10938 0.4375-0.17188 0.60938-0.45312 1.1719-0.70312 1.7344-0.20312 0.35938-0.34375 0.76562-0.5625 1.1094-0.32812 0.57812-0.70312 1.1406-1.1406 1.6406-0.60938 0.64062-1.2969 1.2188-2.0156 1.7188-0.76562 0.5625-1.5938 1.0312-2.4219 1.4219-0.26562 0.10938-0.54688 0.20312-0.79688 0.32812-0.70312 0.29688-1.4062 0.53125-2.1406 0.73438-0.51562 0.09375-1.0312 0.23438-1.5469 0.28125-0.85938 0.14062-1.7188 0.20312-2.5938 0.15625-0.82812-0.03125-1.6406-0.1875-2.4375-0.375-0.20312-0.03125-0.40625-0.03125-0.59375-0.09375-0.65625-0.21875-1.2656-0.51562-1.875-0.82812-0.45312-0.23438-0.89062-0.48438-1.3281-0.75-0.45312-0.25-0.89062-0.54688-1.3281-0.85938-0.65625-0.5-1.3125-1.0312-1.8594-1.6562-0.32812-0.34375-0.59375-0.73438-0.89062-1.1094-0.32812-0.4375-0.67188-0.875-0.98438-1.3281-0.1875-0.3125-0.46875-0.57812-0.625-0.92188-0.25-0.4375-0.4375-0.90625-0.60938-1.3906l0.90625-0.53125z"/>
 <path d="m68.188 42.266c0-0.1875 0.10938-1-0.046875-1.4531-0.14062-0.51562-0.54688-0.95312-1.0469-1.1719-0.25-0.10938-0.51562-0.15625-0.8125-0.15625l-0.6875-0.03125-0.96875-0.046875c-0.39062-0.015625-0.79688-0.0625-1.1875-0.0625l-3.1562-0.046875h-2.2031-1.8125-0.67188c-0.29688 0-0.57812 0.046875-0.82812 0.14062-0.51562 0.1875-0.9375 0.59375-1.1719 1.0781-0.23438 0.42188-0.1875 1.1094-0.1875 1.5156v0.85938 1.7188c0 0.28125 0.078125 0.54688 0.078125 0.82812-0.03125 0.95312-0.078125 1.9062-0.10938 2.8594-0.015625 0.71875-0.03125 1.4219-0.015625 2.1406l0.03125 1.0938 0.03125 0.89062c0.03125 0.35938 0.125 0.65625 0.29688 0.9375 0.26562 0.4375 0.71875 0.76562 1.2031 0.89062 0.42188 0.14062 1.25 0.046875 1.3906 0.046875l1.7188-0.0625c0.65625-0.015625 1.3125 0 1.9688-0.03125 0.75-0.03125 1.5-0.09375 2.2656-0.17188 0.5-0.046875 0.98438-0.14062 1.4844-0.17188 0.78125-0.046875 1.5469-0.09375 2.3281-0.14062 0.09375 0 0.1875-0.046875 0.28125-0.09375 0.03125 0 0.078125-0.09375 0.078125-0.125 0-0.078125-0.046875-0.21875-0.078125-0.21875-0.1875-0.046875-0.39062-0.09375-0.59375-0.078125-1.6875 0.14062-3.375 0.14062-5.0625-0.14062-0.78125-0.125-1.5781-0.23438-2.375-0.29688-0.76562-0.0625-1.5625-0.14062-2.2969-0.23438-0.23438-0.046875-0.45312-0.046875-0.5625-0.26562-0.10938-0.1875 0-0.42188 0.015625-0.5625 0.078125-0.71875 0.17188-1.4531 0.21875-2.1875 0.046875-0.6875 0.046875-1.3906 0.0625-2.0781h0.046875c0.03125-0.25 0.078125-0.51562 0.09375-0.76562 0-0.71875 0.03125-1.4219 0.046875-2.1406v-0.95312l-0.015625-1.0781v-0.53125-0.09375c0-0.046875 0.078125-0.0625 0.10938-0.03125-0.09375 0 0.34375 0.015625 0.57812 0.03125h0.8125c0.96875 0.03125 1.9375-0.078125 2.9219 0.046875h0.29688c1.0938-0.03125 2.1719-0.078125 3.2656-0.10938 0.85938-0.03125 2.25-0.10938 2.0938-0.125 0.09375 0 0.14062 0.09375 0.1875 0.1875l0.03125 0.0625 0.03125 0.21875 0.0625 0.46875c0.03125 0.32812 0.078125 0.64062 0.10938 0.95312 0.078125 0.92188 0.14062 1.8125 0.20312 2.7344 0.10938 1.1094 0.29688 2.2188 0.23438 3.3281-0.03125 0.5 0.015625 1 0.10938 1.4844 0.078125 0.39062 0.17188 0.76562 0.26562 1.1406 0.125 0.40625-0.125 1-0.6875 1.1875-0.0625 0.015625-0.09375 0.125-0.17188 0.1875 0.0625 0.046875 0.15625 0.15625 0.23438 0.14062 0.5-0.078125 0.90625-0.4375 1.1094-0.875 0.078125-0.17188 0.125-0.375 0.14062-0.5625v-0.32812l0.015625-0.625v-1.25-1.6719c0-0.89062-0.015625-1.7812 0.03125-2.6719 0.078125-1.1719 0.17188-2.3906 0.25-3.5625z"/>
</svg>