<svg xmlns="http://www.w3.org/2000/svg" xmlns:xlink="http://www.w3.org/1999/xlink" version="1.1" x="0px" y="0px" viewBox="0 0 48 60" enable-background="new 0 0 48 48" xml:space="preserve"><g><g><g><path d="M32.6,8c-0.7-3.5-2.2-3.8-2.2-3.8c0.1-1.8-1.2-3.3-1.2-3.3v2.4C28.7,1.1,26.7,0,26.7,0v1.5c-3.6-2.4-7,0.7-7,0.7l0.4-1.8     c-1.6,0.2-1.4,2.4-1.4,2.4C18.2,1.6,16.6,2,16.6,2L18,3.1C15.3,3.5,13.9,7,13.9,7l1.4-0.5c-2.5,1.7-2.1,5.3-1.9,6.2     c0.1-0.4,0.9-1,0.9-1l0.2,0.4c0,0.4-0.1,0.8-0.1,1.3c0,6.6,4.2,11.9,9.4,11.9c5.2,0,9.4-5.3,9.4-11.9C33.4,11.8,32.7,8.3,32.6,8z      M27.4,20.8c-0.6,0.5-1.2,0.2-1.4,0c-1-1-2.9-1-4,0c-0.4,0.4-1,0.4-1.4,0c-0.4-0.4-0.4-1,0-1.4c0.9-0.9,2.1-1.4,3.4-1.4     c1.3,0,2.5,0.5,3.4,1.4C27.7,19.8,27.8,20.4,27.4,20.8z M31.1,16.3c-0.8,0.6-1.7,1-2.7,1.4c-1.3-1.1-2.8-1.7-4.4-1.7     c-1.6,0-3.1,0.6-4.4,1.7c-1-0.3-1.9-0.8-2.7-1.4c-0.2-0.9-0.1-5-0.1-5.5c0.2-1.1,0.6-2.2,1.1-3.2l1.4,1l0.8-2.4     c2.3,1,2.4,3.9,2.4,3.9c1-0.5,1.7-3.4,1.7-3.4c1.3-0.5,2.1,4.5,2.1,4.5C26.8,9.5,26,6,26,6l1.3,3.1V6c0.9,0.7,0.7,3.7,0.7,3.7     L29.7,7c0,0.1,0.1,0.2,0.1,0.2l-0.3,1.8l0.9-0.6c0,0.1,0.1,0.1,0.1,0.2c-0.3,0.9-0.4,2.5-0.4,2.5l0.9-1     C31.3,11.3,31.3,15.4,31.1,16.3z"/></g></g><g><path d="M14.9,26.1c0.9-0.4,1.6-1.1,2-1.9c2,1.9,4.4,3,7.1,3c2.7,0,5.2-1.1,7.1-3c0.4,0.8,1.1,1.5,2,1.9c-0.8,2.6-2.4,6.3-4.6,7.7    l-0.5,0.7c0,0-0.9,4.5-4,5.7c-3.1-1.2-4.1-5.6-4.1-5.7l-0.5-0.7C17.2,32.4,15.7,28.6,14.9,26.1z"/><path d="M44.7,34.6V42c-5.8,3.8-12.9,6-20.7,6c-7.7,0-14.9-2.2-20.7-6v-7.4c0-4.5,4-8.1,9.1-8.1h0.5c0.7,2.5,2.4,6.8,5.2,8.7    c0.4,1.4,1.8,5.7,5.6,6.9l0.3,0.1l0.3-0.1c3.8-1.1,5.3-5.5,5.6-6.9c2.8-1.9,4.4-6.2,5.2-8.7h0.5C40.6,26.5,44.7,30.1,44.7,34.6z"/></g></g></svg>