<svg xmlns="http://www.w3.org/2000/svg" xmlns:xlink="http://www.w3.org/1999/xlink" version="1.1" x="0px" y="0px" viewBox="0 0 48 60" enable-background="new 0 0 48 48" xml:space="preserve"><g><path d="M13.7,28.2V34h-0.4c-0.5,0-0.9,0.4-0.9,0.9v11.2c-2.7-0.9-5.2-2.1-7.4-3.6v-6.8c0-4.1,3.7-7.5,8.4-7.5H13.7z"/><path d="M32.4,34H15.6v-6.2c0.8-0.4,1.5-1,1.9-1.7c2,1.8,4.3,2.7,6.4,2.7c2.3,0,4.8-0.8,6.8-2.5c0.4,0.7,1,1.3,1.8,1.6V34z"/><path d="M14.2,35.8h19.6v10.8C30.7,47.5,27.4,48,24,48c-3.4,0-6.7-0.5-9.8-1.3V35.8z"/><path d="M43.1,35.6v6.8c-2.3,1.5-4.8,2.7-7.4,3.6V34.9c0-0.5-0.4-0.9-0.9-0.9h-0.4v-5.8h0.4C39.3,28.2,43.1,31.5,43.1,35.6z"/><path d="M32.1,6.2c-0.4-2.1-1.1-4.3-2.2-5.4C29.2,0.1,28.6,0,28.1,0c-0.7,0-1.4,0.4-2.1,1.1c-1,1-2.7,1-3.8,0   c-1.4-1.4-2.9-1.4-4-0.1c-1.1,1.1-1.8,3.3-2.2,5.4c-3.4,1.1-5.3,2.8-5.3,4.7c0,1.7,1.4,3.1,3.6,4.1c1,8,5.6,11.7,9.5,11.7   c4.2,0,8.9-3.1,9.8-11.6c2.3-1,3.8-2.4,3.8-4.2C37.5,9,35.5,7.3,32.1,6.2z M23.8,25c-3,0-6.5-3.1-7.5-9.1c2.3,0.7,5.1,1.1,7.8,1.1   c2.6,0,5.3-0.3,7.6-1C30.9,21.6,28,25,23.8,25z M24.1,15.1c-6.6,0-11.5-2.2-11.5-4.1c0-0.9,1.2-1.9,3.1-2.7c-0.1,0.6-0.1,1.2,0,1.6   c0.2,2.5,4.5,3.4,8.5,3.4c2,0,4.1-0.2,5.7-0.8c1.6-0.6,2.7-1.4,2.7-2.7c0-0.4,0-0.9-0.1-1.5c2,0.8,3.2,1.8,3.2,2.7   C35.6,12.9,30.7,15.1,24.1,15.1z"/></g></svg>